<svg width="42" height="42" viewBox="0 0 42 42" fill="none" xmlns="http://www.w3.org/2000/svg">
<path d="M4.89995 2.7998H4.19997C3.81336 2.7998 3.5 3.11316 3.5 3.49978C3.5 3.88639 3.81336 4.19983 4.19997 4.19983H4.89995C5.28656 4.19983 5.59992 3.88647 5.59992 3.49986C5.59992 3.11325 5.28656 2.7998 4.89995 2.7998Z" fill="#5F5F5F"/>
<path d="M8.39995 2.7998H7.69997C7.31336 2.7998 7 3.11316 7 3.49978C7 3.88639 7.31344 4.19975 7.69997 4.19975H8.39995C8.78656 4.19975 9.09992 3.88639 9.09992 3.49978C9.09992 3.11316 8.78656 2.7998 8.39995 2.7998Z" fill="#5F5F5F"/>
<path d="M11.8999 2.7998H11.2C10.8134 2.7998 10.5 3.11316 10.5 3.49978C10.5 3.88639 10.8134 4.19975 11.2 4.19975H11.8999C12.2866 4.19975 12.5999 3.88639 12.5999 3.49978C12.5999 3.11316 12.2865 2.7998 11.8999 2.7998Z" fill="#5F5F5F"/>
<path d="M40.6 25.2H39.9V21.7C39.8994 19.74 39.1479 17.8547 37.8 16.4318V3.50003C37.7977 1.56795 36.2321 0.00229687 34.3 0H3.50003C1.56795 0.00229687 0.00229687 1.56795 0 3.50003V31.5C0.00229687 33.432 1.56795 34.9976 3.50003 35H22.4V37.1C22.4031 39.8049 24.5951 41.997 27.3 42H37.1C39.8049 41.9969 41.997 39.8049 42 37.1V26.6C42 25.8268 41.3732 25.2 40.6 25.2ZM38.5 21.7V25.2H25.9V21.7C25.9 18.2206 28.7206 15.4 32.2 15.4C35.6793 15.4 38.5 18.2206 38.5 21.7ZM1.40003 3.50003C1.40003 2.34027 2.34027 1.40003 3.50003 1.40003H34.3001C35.4598 1.40003 36.4001 2.34027 36.4001 3.50003V5.60003H1.40003V3.50003ZM22.4 26.6V33.6H3.50003C2.34027 33.6 1.40003 32.6598 1.40003 31.5V6.99997H36.4001V15.2544C34.0352 13.7074 31.0124 13.5821 28.5276 14.928C26.0428 16.2739 24.4963 18.8741 24.5 21.7V25.2H23.8001C23.0268 25.2 22.4 25.8268 22.4 26.6ZM40.6 28H38.5C38.1134 28 37.8 28.3133 37.8 28.6999C37.8 29.0866 38.1134 29.3999 38.5 29.3999H40.6V30.7999H38.5C38.1134 30.7999 37.8 31.1133 37.8 31.4999C37.8 31.8865 38.1134 32.1999 38.5 32.1999H40.6V33.6H38.5C38.1134 33.6 37.8 33.9134 37.8 34.3C37.8 34.6866 38.1134 34.9999 38.5 34.9999H40.6V36.4H38.5C38.1134 36.4 37.8 36.7134 37.8 37.0999C37.8 37.4866 38.1134 37.7999 38.5 37.7999H40.53C40.1951 39.4284 38.7626 40.5978 37.1 40.5999H27.3C25.6375 40.5978 24.2049 39.4284 23.87 37.7999H25.9001C26.2867 37.7999 26.6 37.4865 26.6 37.0999C26.6 36.7133 26.2867 36.4 25.9001 36.4H23.8001V34.9999H25.9001C26.2867 34.9999 26.6 34.6866 26.6 34.3C26.6 33.9134 26.2867 33.6 25.9001 33.6H23.8001V32.2H25.9001C26.2867 32.2 26.6 31.8866 26.6 31.5C26.6 31.1134 26.2867 30.8 25.9001 30.8H23.8001V29.4H25.9001C26.2867 29.4 26.6 29.0866 26.6 28.7C26.6 28.3134 26.2867 28.0001 25.9001 28.0001H23.8001V26.6H40.6001V28H40.6Z" fill="#5F5F5F"/>
<path d="M31.5008 34.1713V35.7001C31.5008 36.0867 31.8143 36.4001 32.2008 36.4001C32.5874 36.4001 32.9008 36.0867 32.9008 35.7001V34.1713C33.8644 33.8319 34.4426 32.847 34.2695 31.8401C34.0965 30.8333 33.2224 30.0981 32.2008 30.1001C31.1792 30.0981 30.3051 30.8334 30.1321 31.8401C29.959 32.847 30.5372 33.8319 31.5008 34.1713ZM32.2008 31.5001C32.5874 31.5001 32.9008 31.8136 32.9008 32.2001C32.9008 32.5867 32.5873 32.9001 32.2008 32.9001C31.8142 32.9001 31.5008 32.5866 31.5008 32.2001C31.5008 31.8136 31.8143 31.5001 32.2008 31.5001Z" fill="#5F5F5F"/>
<path d="M11.9012 14.0001C11.5146 14.0001 11.2012 14.3134 11.2012 14.7V16.8H5.6012V11.2H8.40117C8.78778 11.2 9.10114 10.8866 9.10114 10.5C9.10114 10.1134 8.78778 9.80005 8.40117 9.80005H5.6012C4.82797 9.80005 4.20117 10.4268 4.20117 11.2001V16.8C4.20117 17.5733 4.82797 18.2001 5.6012 18.2001H11.2012C11.9745 18.2001 12.6013 17.5733 12.6013 16.8V14.7C12.6012 14.3134 12.2877 14.0001 11.9012 14.0001Z" fill="#5F5F5F"/>
<path d="M7.49489 12.805C7.22025 12.5397 6.7836 12.5435 6.51364 12.8136C6.24359 13.0836 6.23982 13.5202 6.50511 13.7948L7.90513 15.1948C8.03638 15.3261 8.21439 15.3999 8.40003 15.3999H8.43153C8.62791 15.3911 8.81158 15.3003 8.93766 15.1493L12.4377 10.9493C12.598 10.7573 12.6437 10.4943 12.5575 10.2594C12.4712 10.0245 12.2663 9.85346 12.0198 9.81064C11.7733 9.76782 11.5227 9.85978 11.3624 10.0519L8.35245 13.6639L7.49489 12.805Z" fill="#5F5F5F"/>
<path d="M11.9012 25.9001C11.5146 25.9001 11.2012 26.2135 11.2012 26.6001V28.7001H5.6012V23.1001H8.40117C8.78778 23.1001 9.10114 22.7867 9.10114 22.4002C9.10114 22.0136 8.78778 21.7002 8.40117 21.7002H5.6012C4.82797 21.7002 4.20117 22.327 4.20117 23.1002V28.7003C4.20117 29.4735 4.82797 30.1003 5.6012 30.1003H11.2012C11.9745 30.1003 12.6013 29.4735 12.6013 28.7003V26.6003C12.6012 26.2136 12.2877 25.9001 11.9012 25.9001Z" fill="#5F5F5F"/>
<path d="M7.49489 24.7051C7.22025 24.4398 6.7836 24.4436 6.51364 24.7136C6.24359 24.9837 6.23982 25.4202 6.50511 25.6949L7.90513 27.0949C8.03638 27.2262 8.21439 27.3 8.40003 27.3H8.43153C8.62791 27.2912 8.81158 27.2003 8.93766 27.0494L12.4377 22.8494C12.598 22.6573 12.6437 22.3944 12.5575 22.1595C12.4712 21.9246 12.2663 21.7536 12.0198 21.7108C11.7733 21.668 11.5227 21.7599 11.3624 21.952L8.35245 25.564L7.49489 24.7051Z" fill="#5F5F5F"/>
<path d="M15.4011 11.9H21.0012C21.3878 11.9 21.7011 11.5867 21.7011 11.2001C21.7011 10.8134 21.3878 10.5 21.0012 10.5H15.4011C15.0145 10.5 14.7012 10.8134 14.7012 11.2C14.7012 11.5866 15.0146 11.9 15.4011 11.9Z" fill="#5F5F5F"/>
<path d="M15.2012 15.4H19.2012C19.4773 15.4 19.7012 15.0867 19.7012 14.7001C19.7012 14.3134 19.4773 14 19.2012 14H15.2012C14.925 14 14.7012 14.3134 14.7012 14.7C14.7012 15.0866 14.9251 15.4 15.2012 15.4Z" fill="#5F5F5F"/>
<path d="M21.0012 22.4001H15.4011C15.0145 22.4001 14.7012 22.7136 14.7012 23.1001C14.7012 23.4867 15.0145 23.8001 15.4011 23.8001H21.0012C21.3878 23.8001 21.7011 23.4867 21.7011 23.1001C21.7011 22.7135 21.3878 22.4001 21.0012 22.4001Z" fill="#5F5F5F"/>
<path d="M20.2992 25.9001H15.3992C15.0126 25.9001 14.6992 26.2135 14.6992 26.6001C14.6992 26.9867 15.0126 27.3001 15.3992 27.3001H20.2992C20.6858 27.3001 20.9991 26.9867 20.9991 26.6001C20.9991 26.2135 20.6858 25.9001 20.2992 25.9001Z" fill="#5F5F5F"/>
</svg>
