<svg width="70" height="70" viewBox="0 0 70 70" fill="none" xmlns="http://www.w3.org/2000/svg">
<g opacity="0.7" clip-path="url(#clip0)">
<path d="M57.3864 43.9954C55.8971 47.4052 55.3415 51.1499 55.7765 54.8452C56.0352 57.2508 56.5075 59.6284 57.1881 61.9501C57.5607 63.1506 58.0247 64.3207 58.5763 65.4501C59.1013 66.5351 60.3263 67.7367 60.6647 68.8334H31.1719C31.1719 68.8334 29.4103 61.6585 25.4203 59.8502C24.6737 60.1068 23.892 60.3752 23.0987 60.6435C20.5226 61.5368 17.9019 62.2962 15.2472 62.9185C14.4986 63.0905 13.7127 62.9782 13.0421 62.6035C12.3073 62.1383 11.7615 61.4271 11.5023 60.5969C11.1873 59.7681 11.0715 58.877 11.164 57.9953C11.4365 57.0967 11.5317 56.1536 11.444 55.2187C11.1407 54.0405 10.0091 53.7488 9.12244 53.1188C8.41069 52.6054 9.69406 50.9604 9.69406 50.9604C9.69406 50.9604 8.32894 49.9454 7.82732 49.5021C7.32571 49.0821 8.03732 48.3587 8.67893 46.9937C8.94936 46.4026 9.02688 45.7414 8.90055 45.1037C8.66717 43.8554 6.76558 43.3771 5.83221 42.6888C5.4006 42.3622 4.68885 41.8722 4.59547 41.2772C4.47899 40.4488 5.45884 39.2822 5.93735 38.6988C7.96883 36.0756 9.7095 33.2396 11.1289 30.2406C11.3207 29.9263 11.433 29.5698 11.4555 29.2022C11.4439 27.5338 9.01717 26.8456 8.79555 25.2239C8.76083 24.748 8.84491 24.2708 9.04055 23.8355C9.71333 22.4055 10.2901 20.9322 10.7671 19.4256C11.0529 18.042 11.4269 16.6781 11.8871 15.3423C12.8566 12.6543 14.3651 10.1928 16.3204 8.10898C19.1788 5.0874 23.4021 3.5939 27.3919 2.80067C30.9244 2.02494 34.5071 1.49871 38.1134 1.22569C38.2416 1.21407 38.37 1.21407 38.4984 1.20231C45.9765 0.828939 51.8798 3.36066 57.6547 7.88722C60.8114 10.2362 63.1171 13.5493 64.223 17.3255C65.0748 20.4408 65.4717 23.663 65.4014 26.892C65.3775 30.0787 64.4512 33.1934 62.7298 35.8752C60.9915 38.6172 58.7049 40.9972 57.3864 43.9954Z" fill="#7FACFA"/>
<path d="M53.8166 43.9954C52.3273 47.4053 51.7717 51.1498 52.2066 54.8452C52.4652 57.2508 52.9376 59.6284 53.6182 61.9501C53.9907 63.1507 54.4549 64.3207 55.0065 65.4501C55.5315 66.5351 56.7565 67.7367 57.0947 68.8334H31.1719C31.1719 68.8334 29.4103 61.6585 25.4203 59.8502C24.6737 60.1068 23.892 60.3752 23.0987 60.6435C22.7137 60.3285 20.2754 62.0319 19.8322 61.8335C17.6776 62.6898 15.3338 62.9556 13.0421 62.6035C12.3073 62.1383 11.7615 61.4271 11.5023 60.5969C11.1873 59.7681 11.0715 58.877 11.164 57.9953C11.4365 57.0967 11.5317 56.1536 11.444 55.2188C11.1407 54.0405 10.0091 53.7488 9.12244 53.1188C8.41069 52.6054 9.69406 50.9604 9.69406 50.9604C9.69406 50.9604 8.32894 49.9454 7.82732 49.5021C7.32571 49.0821 8.03732 48.3587 8.67893 46.9937C8.94936 46.4026 9.02688 45.7414 8.90055 45.1038C8.66718 43.8554 6.76558 43.3772 5.83221 42.6888C5.4006 42.3622 4.68885 41.8722 4.59547 41.2772C4.47899 40.4488 5.45884 39.2822 5.93735 38.6988C7.96883 36.0757 9.70951 33.2396 11.1289 30.2406C11.3207 29.9263 11.433 29.5698 11.4555 29.2022C11.4439 27.5339 9.01717 26.8456 8.79555 25.2239C8.76083 24.748 8.84491 24.2708 9.04055 23.8355C9.71333 22.4055 10.2901 20.9322 10.7671 19.4256C11.0529 18.042 11.4269 16.6781 11.8871 15.3423C12.8566 12.6543 14.3651 10.1928 16.3204 8.10899C19.1788 5.08741 23.4021 3.59392 27.3919 2.80069C30.9244 2.02495 34.5071 1.49873 38.1134 1.22571C44.1333 1.6107 49.1615 4.02567 54.0848 7.88724C57.2414 10.2362 59.5472 13.5494 60.6531 17.3255C61.5048 20.4409 61.9017 23.663 61.8314 26.892C61.8075 30.0787 60.8813 33.1934 59.1599 35.8752C57.4215 38.6172 55.1348 40.9972 53.8166 43.9954Z" fill="#E3E7F2"/>
<path d="M52.7957 9.86308C54.2911 10.9077 55.5907 12.2074 56.6354 13.7028L54.2837 16.0543C55.0656 17.2729 55.6246 18.6209 55.9347 20.0352H59.2584C59.5771 21.8315 59.5771 23.6698 59.2584 25.4662H55.9347C55.6246 26.8805 55.0656 28.2284 54.2837 29.4471L56.6354 31.7987C55.5907 33.2942 54.2911 34.5938 52.7957 35.6384L50.4442 33.2868C49.2256 34.0687 47.8776 34.6277 46.4632 34.9378V38.2615C44.6669 38.5802 42.8286 38.5802 41.0323 38.2615V34.9378C39.618 34.6277 38.2701 34.0687 37.0514 33.2868L34.6997 35.6384C33.2043 34.5938 31.9047 33.2942 30.86 31.7987L33.2117 29.4472C32.4298 28.2287 31.8708 26.8806 31.5607 25.4663H28.237C27.9184 23.67 27.9184 21.8317 28.237 20.0354H31.5607C31.8708 18.621 32.4298 17.2731 33.2117 16.0544L30.86 13.7028C31.9047 12.2074 33.2043 10.9077 34.6997 9.86308L37.0512 12.2147C38.2698 11.4329 39.6178 10.8738 41.0322 10.5637V7.23989C42.8285 6.92134 44.6668 6.92134 46.4631 7.23989V10.5636C47.8774 10.8737 49.2253 11.4327 50.444 12.2146L52.7957 9.86308Z" fill="#A4C2F7"/>
<path d="M22.166 38.5004C24.0989 38.5004 25.6659 36.9335 25.6659 35.0005C25.6659 33.0675 24.0989 31.5005 22.166 31.5005C20.233 31.5005 18.666 33.0675 18.666 35.0005C18.666 36.9335 20.233 38.5004 22.166 38.5004Z" fill="#E3E7F2"/>
<path d="M19.8332 23.8012C21.3795 23.8012 22.6331 22.5476 22.6331 21.0012C22.6331 19.4548 21.3795 18.2012 19.8332 18.2012C18.2868 18.2012 17.0332 19.4548 17.0332 21.0012C17.0332 22.5476 18.2868 23.8012 19.8332 23.8012Z" fill="#E3E7F2"/>
<path d="M43.7486 29.1672C47.2923 29.1672 50.1651 26.2944 50.1651 22.7506C50.1651 19.2069 47.2923 16.3341 43.7486 16.3341C40.2048 16.3341 37.332 19.2069 37.332 22.7506C37.332 26.2944 40.2048 29.1672 43.7486 29.1672Z" fill="#E3E7F2"/>
<path d="M54.2832 16.0541C55.0575 17.2624 55.6142 18.597 55.928 19.9974L55.7648 20.0324H52.4398C52.1271 18.6188 51.5663 17.2718 50.7832 16.0541L53.1398 13.6975C52.5717 12.887 51.9271 12.1331 51.2148 11.4459L52.8014 9.85931C54.2929 10.9075 55.5915 12.2061 56.6397 13.6976L54.2832 16.0541Z" fill="#7FACFA"/>
<path d="M59.499 22.7506C59.498 23.6617 59.4199 24.571 59.2656 25.469H55.7656C56.0767 23.6702 56.0767 21.8312 55.7656 20.0324L55.9289 19.9974C55.9379 20.0067 55.9421 20.0196 55.9405 20.0324H59.2656C59.4199 20.9303 59.498 21.8396 59.499 22.7506Z" fill="#7FACFA"/>
<path d="M56.6397 31.8038C55.5915 33.2953 54.293 34.594 52.8014 35.6422L51.2148 34.0556C51.9271 33.3684 52.5717 32.6144 53.1398 31.804L50.7832 29.4474C51.5663 28.2296 52.1273 26.8827 52.4398 25.4691H55.9398C55.6271 26.8827 55.0663 28.2296 54.2832 29.4474L56.6397 31.8038Z" fill="#7FACFA"/>
<path d="M12.5404 23.8356C12.3447 24.2709 12.2606 24.7481 12.2954 25.224C12.517 26.8456 14.9437 27.534 14.9553 29.2023C14.9326 29.5698 14.8205 29.9264 14.6287 30.2407C13.2093 33.2397 11.4686 36.0756 9.43716 38.6989C8.95866 39.2823 7.97881 40.4489 8.09529 41.2773C8.1888 41.8723 8.90041 42.3623 9.33217 42.6889C10.2655 43.3773 12.167 43.8555 12.4005 45.1039C12.5267 45.7415 12.4492 46.4027 12.1787 46.9938C11.5371 48.3588 10.8255 49.0822 11.3271 49.5022C11.8289 49.9455 13.1939 50.9605 13.1939 50.9605C13.1939 50.9605 11.9104 52.6055 12.6223 53.1189C13.5089 53.7489 14.6406 54.0405 14.9438 55.2189C15.0315 56.1539 14.9363 57.0968 14.6638 57.9954C14.5713 58.8771 14.6871 59.7684 15.0021 60.597C15.2613 61.4273 15.8071 62.1384 16.5421 62.6036C16.5771 62.6152 16.6004 62.6386 16.6354 62.6502C16.4838 62.6619 16.3438 62.6852 16.2038 62.6969C15.8655 62.7785 15.5506 62.8602 15.2472 62.9185C14.4986 63.0905 13.7127 62.9782 13.0421 62.6035C12.3073 62.1382 11.7615 61.427 11.5023 60.5969C11.1873 59.7681 11.0715 58.877 11.164 57.9953C11.4365 57.0967 11.5317 56.1536 11.444 55.2187C11.1407 54.0405 10.0091 53.7487 9.12244 53.1187C8.41069 52.6054 9.69406 50.9604 9.69406 50.9604C9.69406 50.9604 8.32894 49.9454 7.82732 49.502C7.32571 49.082 8.03732 48.3587 8.67893 46.9937C8.94936 46.4025 9.02688 45.7414 8.90055 45.1037C8.66717 43.8554 6.76558 43.3771 5.83221 42.6888C5.4006 42.3621 4.68885 41.8721 4.59547 41.2771C4.47899 40.4488 5.45884 39.2822 5.93735 38.6988C7.96883 36.0756 9.7095 33.2396 11.1289 30.2405C11.3207 29.9262 11.433 29.5698 11.4555 29.2022C11.4439 27.5338 9.01717 26.8456 8.79555 25.2239C8.76083 24.7479 8.84491 24.2708 9.04055 23.8355C9.71333 22.4054 10.2901 20.9322 10.7671 19.4256C11.0529 18.042 11.4269 16.6781 11.8871 15.3422C12.8566 12.6542 14.3651 10.1928 16.3204 8.10895C19.1788 5.08737 23.4021 3.59388 27.3919 2.80065C30.9244 2.02492 34.5071 1.49869 38.1134 1.22567C38.2416 1.21405 38.37 1.21405 38.4984 1.20229C39.5362 1.14569 40.5765 1.15348 41.6132 1.22567C38.0069 1.49869 34.4242 2.02492 30.8917 2.80065C26.9019 3.59402 22.6785 5.08724 19.8203 8.10895C17.8651 10.1928 16.3564 12.6542 15.3869 15.3422C14.9268 16.678 14.5527 18.0418 14.267 19.4256C13.79 20.9323 13.2131 22.4056 12.5404 23.8356Z" fill="white"/>
<path d="M34.6729 68.8334H31.1729C31.1729 68.8334 29.7729 63.1401 26.6465 60.6319C27.4281 60.3635 28.1862 60.1069 28.9215 59.8503C32.9111 61.6585 34.6729 68.8334 34.6729 68.8334Z" fill="white"/>
<path d="M17.1607 8.91355C15.5251 10.6604 14.2197 12.6894 13.3079 14.902C12.8465 16.0124 12.4832 17.1611 12.2224 18.335C12.0661 18.9573 11.9669 19.5062 11.761 20.234C11.5615 20.8852 11.3211 21.5232 11.0411 22.1441C10.7171 22.8844 10.3897 23.5762 10.1364 24.2495L7.95312 23.4263C8.25336 22.632 8.59952 21.906 8.90303 21.21C9.14352 20.6787 9.35037 20.1329 9.52236 19.5757C9.66455 19.0882 9.80318 18.3936 9.95343 17.79C10.2438 16.4953 10.6456 15.2282 11.1546 14.003C12.1754 11.5292 13.6363 9.26122 15.4665 7.3089L17.1607 8.91355Z" fill="white"/>
<path d="M11.3025 17.2137C11.6011 17.2863 11.9158 17.2486 12.1888 17.1076C12.4464 16.9615 12.6415 16.7261 12.7372 16.4458C12.8199 16.1644 12.7964 15.8626 12.6711 15.5975L12.5559 15.4096C12.5101 15.346 12.4564 15.2888 12.3961 15.2389C12.3459 15.1843 12.2881 15.1373 12.2245 15.0994C12.1572 15.0595 12.0874 15.0241 12.0154 14.9936C11.568 14.8049 11.0495 14.9392 10.75 15.3213C10.4332 15.6977 10.371 16.2266 10.5921 16.6662C10.6702 16.7996 10.7739 16.9161 10.8974 17.0089C11.0174 17.1037 11.1551 17.1733 11.3025 17.2137Z" fill="#428DFF"/>
<path d="M4.98307 38.0191C4.14568 39.0416 3.26728 40.2344 3.44501 41.4489C3.69916 42.3689 4.30701 43.151 5.13579 43.6245C5.52146 43.8926 5.92847 44.1287 6.35257 44.3303C6.85609 44.5867 7.69923 45.0168 7.75733 45.3238C7.83417 45.7177 7.7896 46.1258 7.62964 46.4939C7.45642 46.859 7.2765 47.1746 7.12146 47.4486C6.69313 48.2063 5.97536 49.4743 7.05761 50.3817C7.30945 50.6044 7.74011 50.9429 8.13426 51.2441C7.84237 51.7568 7.71139 52.3455 7.75829 52.9336C7.82131 53.3901 8.06987 53.8004 8.44529 54.0678C8.70615 54.253 8.98532 54.4142 9.26217 54.5726C9.94808 54.9635 10.2158 55.1457 10.3081 55.5097C10.3693 55.9848 10.3262 56.4675 10.1816 56.9241C10.1143 57.2301 10.0483 57.5359 10.0073 57.8412C9.89011 58.9023 10.024 59.9762 10.3982 60.976C10.9177 62.8335 12.5963 64.1286 14.5247 64.1597C14.8458 64.1592 15.1662 64.1257 15.4806 64.0601C18.8082 63.2575 22.0899 62.2761 25.3116 61.12C27.9396 62.6632 26.5681 68.2402 27 70C27.1288 70.5214 30.6306 69.9993 31.1678 69.9999H60.6644C61.0343 69.9997 61.3822 69.8243 61.6022 69.527C61.8222 69.2296 61.8881 68.8456 61.7799 68.492C61.4683 67.6698 61.0247 66.9039 60.4662 66.2249C60.15 65.8217 59.8687 65.3922 59.6254 64.9414C59.0997 63.865 58.6591 62.7492 58.3072 61.6044C57.6401 59.3513 57.1799 57.042 56.9321 54.7054C56.5196 51.2166 57.0462 47.6811 58.4576 44.4642C59.3212 42.6837 60.3836 41.0067 61.6249 39.4654C62.3301 38.5169 63.0581 37.5359 63.7143 36.5015C65.5559 33.6407 66.5461 30.3153 66.5694 26.9131C66.6392 23.5695 66.2283 20.2332 65.3492 17.0062C64.1693 12.9967 61.7222 9.47737 58.3744 6.97518C51.7926 1.81248 45.6393 -0.327691 38.4411 0.0402138C34.6453 0.3023 30.8737 0.841101 27.1562 1.65238C21.8926 2.71194 18.0703 4.56212 15.468 7.30849C14.3389 8.50709 13.35 9.83133 12.5216 11.2546C12.3572 11.525 12.3118 11.8515 12.3964 12.1565C12.4809 12.4615 12.6879 12.7181 12.9682 12.8652C13.5243 13.1523 14.2078 12.963 14.537 12.4306C15.275 11.162 16.1554 9.98199 17.1614 8.91341C19.4217 6.52784 22.8419 4.90105 27.6166 3.93993C31.2218 3.15216 34.8795 2.62744 38.5607 2.37001C45.1642 2.03792 50.8288 4.02032 56.9367 8.81224C59.9043 11.0014 62.0713 14.1041 63.1048 17.644C63.922 20.6526 64.303 23.7629 64.2362 26.8798C64.2165 29.8511 63.3515 32.7553 61.7422 35.2531C61.1327 36.2136 60.4309 37.1593 59.7519 38.0742C58.4046 39.757 57.2529 41.5874 56.3192 43.5303C54.7412 47.1288 54.153 51.0835 54.6158 54.9855C54.8798 57.4608 55.3691 59.9066 56.0776 62.293C56.4644 63.5504 56.9481 64.7758 57.5245 65.9581C57.8274 66.5366 58.1817 67.0868 58.5829 67.6021C58.5989 67.6232 58.6148 67.6449 58.6295 67.6665H29.9648C29.1878 64.8976 29.8661 62.3463 27.938 60.2126C28.2433 60.1061 28.5327 60.0046 28.8016 59.91C29.6754 59.6041 30.3339 59.3729 30.6655 59.2686C35.667 57.6986 38.1689 55.4257 38.1005 52.5124C38.0855 51.8681 37.5508 51.358 36.9066 51.3732C36.2623 51.3882 35.7522 51.9229 35.7673 52.5671C35.7958 53.7691 34.8126 55.5213 29.9648 57.0429C29.6207 57.1518 28.936 57.3905 28.0303 57.7083C27.194 58.0012 26.1641 58.3617 25.0373 58.7468L25.0348 58.7481L25.0315 58.7486C21.7472 59.9372 18.4011 60.9474 15.0078 61.7753C13.9151 61.9873 12.851 61.2952 12.6016 60.2104C12.3491 59.5551 12.2527 58.8501 12.3203 58.151C12.3521 57.9096 12.4068 57.668 12.4604 57.4264C12.6996 56.6171 12.7368 55.7614 12.5687 54.9342C12.2344 53.8628 11.4492 52.9905 10.4188 52.5456C10.3357 52.4983 10.2513 52.4505 10.1693 52.4021C10.2938 52.147 10.4434 51.9047 10.6159 51.6791C10.8105 51.4313 10.8963 51.1153 10.8541 50.8031C10.8119 50.4908 10.6449 50.209 10.3916 50.0219C10.1113 49.815 9.44483 49.3154 8.96523 48.9326C9.02442 48.8238 9.09169 48.7047 9.15321 48.5971C9.33204 48.2804 9.53711 47.9153 9.73658 47.4966C10.11 46.6805 10.2195 45.7682 10.0499 44.8869C9.7776 43.4566 8.41043 42.7599 7.4124 42.2506C7.07416 42.0905 6.74987 41.9026 6.4428 41.689C6.2004 41.5207 5.97072 41.3346 5.7558 41.1324C5.75921 40.957 5.94146 40.5303 6.83928 39.4348C8.92435 36.7471 10.7116 33.8411 12.1701 30.768C12.451 30.2866 12.6079 29.743 12.627 29.1861C12.5084 28.0107 11.8847 26.945 10.9181 26.2661C10.4464 25.8343 10.001 25.4263 9.95082 25.0687C9.95506 24.7857 10.0188 24.5069 10.1377 24.25L10.1381 24.2474C10.3915 23.5747 10.7185 22.8833 11.0422 22.1434C11.2027 21.7759 11.3623 21.3958 11.5082 20.9985C11.6322 20.6987 11.6207 20.36 11.4766 20.0694C11.3325 19.7787 11.0698 19.5645 10.7562 19.4816C10.167 19.3323 9.5568 19.6343 9.31809 20.1934C9.19573 20.5263 9.05491 20.864 8.90411 21.2092C8.60087 21.9045 8.25539 22.6298 7.9553 23.4228L7.95461 23.424C7.68514 24.0413 7.577 24.7169 7.64017 25.3877C7.87696 26.4304 8.48111 27.3531 9.34229 27.9869C9.91418 28.511 10.2901 28.879 10.2936 29.214C10.2483 29.3884 10.1797 29.5559 10.0896 29.7119C8.6922 32.6576 6.9801 35.4426 4.98307 38.0191Z" fill="#005ED0"/>
<path d="M28.2379 18.8684C27.6727 18.8683 27.1888 19.2735 27.0895 19.83C26.7462 21.7619 26.7462 23.7393 27.0895 25.6712C27.1888 26.2276 27.6727 26.6329 28.2379 26.6327H30.6567C30.9254 27.5456 31.291 28.4271 31.747 29.2622L30.0358 30.9735C29.6359 31.3732 29.5801 32.0021 29.9035 32.466C31.0252 34.0753 32.4231 35.4732 34.0324 36.5949C34.4963 36.9178 35.1248 36.8624 35.5249 36.4634L37.2362 34.7521C38.0717 35.2083 38.9537 35.5739 39.8669 35.8424V38.2617C39.8672 38.8268 40.2723 39.3105 40.8285 39.4101C42.7601 39.7528 44.7369 39.7528 46.6686 39.4101C47.2249 39.3105 47.6298 38.8268 47.6301 38.2617V35.8424C48.5434 35.5739 49.4254 35.2083 50.2608 34.7521L51.9721 36.4634C52.3721 36.8626 53.0008 36.9181 53.4647 36.5949C55.0739 35.4732 56.4719 34.0753 57.5935 32.466C57.917 32.0023 57.8613 31.3732 57.4613 30.9735L55.75 29.2622C56.2061 28.4271 56.5717 27.5456 56.8403 26.6327H59.2591C59.8243 26.6329 60.3083 26.2276 60.4075 25.6712C60.7508 23.7393 60.7508 21.7619 60.4075 19.83C60.3083 19.2735 59.8243 18.8683 59.2591 18.8684H56.8403C56.5717 17.9556 56.2061 17.074 55.75 16.239L57.4613 14.5277C57.8612 14.1279 57.917 13.499 57.5935 13.0351C56.4719 11.4258 55.0739 10.0279 53.4647 8.90629C53.0013 8.58173 52.3716 8.63723 51.9721 9.03781L50.2608 10.7491C49.4254 10.2929 48.5434 9.92729 47.6301 9.65878V7.23958C47.6298 6.67453 47.2248 6.19082 46.6686 6.09116C44.7368 5.75046 42.7603 5.75046 40.8285 6.09116C40.2722 6.19082 39.8672 6.67453 39.8669 7.23958V9.65892C38.9537 9.92743 38.0717 10.293 37.2362 10.7492L35.5249 9.03795C35.1254 8.63737 34.4959 8.58186 34.0324 8.90643C32.4231 10.0281 31.0252 11.426 29.9035 13.0353C29.5801 13.499 29.6357 14.1281 30.0358 14.5278L31.747 16.2391C31.291 17.0742 30.9254 17.9557 30.6567 18.8686L28.2379 18.8684ZM32.7006 20.2858C32.9804 19.0064 33.4858 17.7871 34.1932 16.6849C34.4905 16.2237 34.4256 15.6173 34.037 15.2294L32.3999 13.5923C33.0484 12.7852 33.7828 12.0511 34.5897 11.4025L36.2268 13.0391C36.614 13.4279 37.2204 13.4936 37.6818 13.1963C38.7843 12.4881 40.0042 11.9824 41.2843 11.7027C41.8192 11.585 42.2003 11.1111 42.2003 10.5634V8.25074C43.2295 8.14027 44.2677 8.14027 45.2969 8.25074V10.5636C45.2969 11.1113 45.6779 11.5853 46.2129 11.7028C47.493 11.9826 48.7129 12.4883 49.8154 13.1965C50.2771 13.4925 50.8825 13.427 51.2703 13.0392L52.9075 11.4026C53.7146 12.0512 54.4487 12.7855 55.0973 13.5924L53.4601 15.2296C53.0717 15.6173 53.0067 16.2237 53.304 16.6851C54.0114 17.7871 54.5168 19.0065 54.7965 20.2859C54.914 20.8209 55.3881 21.2021 55.9358 21.2019H58.2486C58.3595 22.2315 58.3595 23.27 58.2486 24.2997H55.9357C55.3878 24.2995 54.9139 24.6807 54.7964 25.2157C54.5167 26.4951 54.0112 27.7143 53.3039 28.8165C53.0065 29.2778 53.0715 29.8841 53.46 30.272L55.0972 31.9092C54.4486 32.7162 53.7143 33.4504 52.9074 34.099L51.2702 32.4623C50.8825 32.0745 50.277 32.009 49.8153 32.3051C48.7128 33.0133 47.4929 33.519 46.2128 33.7987C45.6778 33.9165 45.2968 34.3903 45.2968 34.938V37.2508C44.2676 37.3613 43.2293 37.3613 42.2001 37.2508V34.938C42.2001 34.3903 41.8191 33.9163 41.2841 33.7987C40.0041 33.519 38.7841 33.0133 37.6816 32.3051C37.2204 32.0077 36.6139 32.0734 36.2267 32.4623L34.5895 34.099C33.7825 33.4504 33.0483 32.7161 32.3997 31.9092L34.0369 30.272C34.4253 29.8843 34.4904 29.2779 34.193 28.8165C33.4857 27.7144 32.9802 26.4951 32.7005 25.2157C32.5831 24.6807 32.1089 24.2995 31.5612 24.2997H29.2485C29.1377 23.27 29.1377 22.2315 29.2485 21.2019H31.5614C32.1091 21.2019 32.5831 20.8208 32.7006 20.2858Z" fill="#005ED0"/>
<path d="M25.4652 30.0508L24.5213 30.9949C24.1501 30.7751 23.7499 30.6083 23.3324 30.4995V29.1672C23.3324 28.5228 22.81 28.0005 22.1658 28.0005C21.5214 28.0005 20.9992 28.5229 20.9992 29.1672V30.4995C20.5816 30.6083 20.1815 30.7751 19.8104 30.9949L18.8665 30.0508C18.5719 29.756 18.1423 29.641 17.7397 29.7489C17.3372 29.8568 17.0228 30.1712 16.9149 30.5737C16.807 30.9762 16.9221 31.4058 17.2168 31.7005L18.1607 32.6447C17.9405 33.0159 17.7738 33.4162 17.6651 33.8338H16.3326C15.6883 33.8338 15.166 34.3562 15.166 35.0005C15.166 35.6448 15.6884 36.1671 16.3326 36.1671H17.6651C17.7738 36.5847 17.9405 36.985 18.1607 37.3562L17.2168 38.3004C16.9221 38.5951 16.807 39.0246 16.9149 39.4272C17.0228 39.8297 17.3372 40.1442 17.7397 40.252C18.1422 40.3599 18.5718 40.2448 18.8665 39.9501L19.8104 39.006C20.1816 39.2258 20.5818 39.3926 20.9993 39.5014V40.8338C20.9993 41.4781 21.5217 42.0004 22.1659 42.0004C22.8103 42.0004 23.3325 41.4781 23.3325 40.8338V39.5014C23.7501 39.3926 24.1502 39.2258 24.5213 39.006L25.4652 39.9501C25.9207 40.4057 26.6594 40.4057 27.1149 39.9501C27.5705 39.4946 27.5705 38.7559 27.1149 38.3004L26.171 37.3562C26.3912 36.985 26.5579 36.5847 26.6666 36.1671H27.9991C28.6434 36.1671 29.1657 35.6447 29.1657 35.0005C29.1657 34.3561 28.6433 33.8338 27.9991 33.8338H26.6666C26.5579 33.4162 26.3912 33.0159 26.171 32.6447L27.1149 31.7005C27.5705 31.245 27.5705 30.5063 27.1149 30.0508C26.6593 29.5952 25.9207 29.5952 25.4652 30.0508ZM22.1656 37.3338C20.877 37.3338 19.8323 36.2891 19.8323 35.0005C19.8323 33.7118 20.877 32.6671 22.1656 32.6671C23.4543 32.6671 24.499 33.7118 24.499 35.0005C24.4975 36.2885 23.4537 37.3323 22.1656 37.3338Z" fill="#005ED0"/>
<path d="M15.1647 19.8341C14.5203 19.8341 13.998 20.3565 13.998 21.0007C13.998 21.6449 14.5204 22.1673 15.1647 22.1673H16.0574C16.1293 22.4014 16.2233 22.6282 16.3378 22.8446L15.7069 23.4758C15.4121 23.7706 15.2971 24.2 15.405 24.6026C15.5129 25.0051 15.8273 25.3196 16.2298 25.4274C16.6323 25.5353 17.0619 25.4202 17.3566 25.1256L17.9894 24.4926C18.2052 24.6066 18.4312 24.7002 18.6645 24.7723V25.6674C18.6645 26.3117 19.1869 26.834 19.8311 26.834C20.4754 26.834 20.9977 26.3116 20.9977 25.6674V24.7723C21.2309 24.7004 21.4569 24.6067 21.6726 24.4926L22.3055 25.1257C22.7611 25.5813 23.4997 25.5813 23.9553 25.1257C24.4108 24.6702 24.4108 23.9315 23.9553 23.4759L23.3242 22.8446C23.4389 22.6282 23.5328 22.4015 23.6047 22.1674H24.4975C25.1418 22.1674 25.6641 21.645 25.6641 21.0008C25.6641 20.3566 25.1417 19.8342 24.4975 19.8342H23.6047C23.5328 19.6002 23.4389 19.3735 23.3242 19.1571L23.9553 18.5257C24.25 18.2309 24.365 17.8015 24.2571 17.3989C24.1493 16.9964 23.8348 16.6819 23.4323 16.5741C23.0298 16.4662 22.6003 16.5813 22.3055 16.8759L21.6726 17.5091C21.4568 17.3951 21.2308 17.3015 20.9977 17.2296V16.3343C20.9977 15.6899 20.4753 15.1677 19.8311 15.1677C19.1867 15.1677 18.6645 15.6901 18.6645 16.3343V17.2298C18.4312 17.3017 18.2052 17.3952 17.9895 17.5092L17.3566 16.8759C16.9011 16.4204 16.1624 16.4204 15.7069 16.8759C15.2513 17.3315 15.2513 18.0702 15.7069 18.5257L16.338 19.1571C16.2233 19.3735 16.1293 19.6002 16.0574 19.8342H15.1647V19.8341ZM18.1976 21.0007C18.1973 20.2612 18.6939 19.6137 19.4082 19.4222C20.1224 19.2306 20.8764 19.5427 21.2462 20.1831C21.616 20.8235 21.5097 21.6325 20.9867 22.1554C20.5197 22.6228 19.817 22.7628 19.2064 22.51C18.5956 22.2574 18.1974 21.6616 18.1976 21.0007Z" fill="#005ED0"/>
<path d="M43.7473 30.3339C47.9354 30.3339 51.3306 26.9388 51.3306 22.7506C51.3306 18.5624 47.9355 15.1674 43.7473 15.1674C39.5591 15.1674 36.1641 18.5624 36.1641 22.7506C36.169 26.9368 39.5612 30.329 43.7473 30.3339ZM43.7473 17.5007C46.6468 17.5007 48.9973 19.8511 48.9973 22.7506C48.9973 25.6501 46.6468 28.0006 43.7473 28.0006C40.8478 28.0006 38.4974 25.6501 38.4974 22.7506C38.5006 19.8525 40.8492 17.5038 43.7473 17.5007Z" fill="#005ED0"/>
</g>
<defs>
<clipPath id="clip0">
<rect width="70" height="70" fill="white"/>
</clipPath>
</defs>
</svg>
