<svg width="70" height="70" viewBox="0 0 70 70" fill="none" xmlns="http://www.w3.org/2000/svg">
<g opacity="0.7">
<path d="M33.6668 28H37.3332C37.3332 28 36.8627 37.9797 37.3332 48.4997C37.8036 59.0196 41 69 41 69H30C30 69 33.2205 58.48 33.6668 48.4997C34.1127 38.52 33.6668 28 33.6668 28Z" fill="#A4C2F7"/>
<path d="M40.6603 69.9999H26.8895C26.5126 69.9999 26.1586 69.8147 25.9446 69.5041C25.7305 69.1929 25.6832 68.7976 25.8172 68.4443C25.8572 68.3406 29.7918 57.887 30.3341 48.1328C30.8831 38.2532 30.3394 27.7071 30.3341 27.6014C30.3171 27.2869 30.4307 26.9796 30.6473 26.7511C30.864 26.5225 31.1648 26.3932 31.48 26.3932H36.0698C36.3863 26.3932 36.6877 26.5239 36.905 26.7537C37.1217 26.9835 37.2333 27.2928 37.2149 27.6086C37.2097 27.7084 36.6371 37.7259 37.2156 48.1328C37.7869 58.413 41.6872 68.3301 41.7266 68.4286C41.8672 68.7818 41.8232 69.1824 41.6098 69.4969C41.3957 69.8114 41.0405 69.9999 40.6603 69.9999ZM28.5172 67.7049H39.0128C37.8637 64.4402 35.3856 56.5712 34.924 48.2609C34.4564 39.8508 34.7316 31.6961 34.8649 28.6888H32.6803C32.805 31.767 33.0716 40.2297 32.6258 48.2609C32.1832 56.2126 29.6585 64.366 28.5172 67.7049Z" fill="#005ED0"/>
<path d="M3.9375 68.8524C3.9375 68.2187 4.45123 67.705 5.08495 67.705H64.8565C65.4902 67.705 66.004 68.2187 66.004 68.8524C66.004 69.4861 65.4902 69.9999 64.8565 69.9999H5.08495C4.45123 69.9999 3.9375 69.4861 3.9375 68.8524Z" fill="#005ED0"/>
<path d="M54 26.7027C54 23.6387 52.4034 20.954 50.0001 19.4174C50.4826 18.3398 50.7567 17.149 50.7567 15.892C50.7567 11.1152 46.8848 7.24333 42.108 7.24333C41.1764 7.24333 41.8407 6.2272 41 6.5C38 4.5 35.4198 3.5 32.5 3.5C27.7232 3.5 23.73 7.87183 23.73 12.6487C23.73 12.674 23.7331 12.6982 23.7337 12.7241C23.3774 12.679 23.0174 12.6487 22.6487 12.6487C17.8724 12.6487 14 16.5205 14 21.2973C14 24.5382 15.7859 27.359 18.4249 28.8399C17.6782 30.1186 17.2433 31.6014 17.2433 33.1893C17.2433 37.9655 21.1152 41.838 25.892 41.838C28.0138 41.838 29.955 41.0709 31.46 39.8022C32.9731 42.3143 35.7185 44 38.8647 44C43.6415 44 47.5133 40.1276 47.5133 35.3513C47.5133 35.2567 47.5028 35.1651 47.4997 35.0717C51.2349 34.1147 54 30.736 54 26.7027Z" fill="#E3E7F2"/>
<path d="M24.5944 22.9511C19.5239 22.9511 15.4141 27.0609 15.4141 32.1314C15.4141 37.2013 19.5239 41.3117 24.5944 41.3117C26.8466 41.3117 28.9091 40.5001 30.5067 39.1541" fill="#E3E7F2"/>
<path d="M54.4289 25.246C54.4289 23.5847 53.9818 22.0318 53.2089 20.689C53.2536 21.0547 53.2818 21.4257 53.2818 21.8033C53.2818 26.0845 50.346 29.671 46.3813 30.6861C46.3846 30.7859 46.3964 30.8831 46.3964 30.9836C46.3964 36.0534 42.2859 40.1639 37.2161 40.1639C33.8765 40.1639 30.9617 38.3746 29.3556 35.708C27.758 37.0548 25.6975 37.869 23.4453 37.869C20.0387 37.869 17.0727 36.0088 15.4883 33.2535C16.0425 37.7928 19.9041 41.3117 24.5931 41.3117C26.8453 41.3117 28.9058 40.4975 30.5034 39.1507C32.1095 41.8173 35.0236 43.6066 38.3632 43.6066C43.4331 43.6066 47.5435 39.4961 47.5435 34.4263C47.5435 34.3258 47.5324 34.2286 47.5291 34.1288C51.4938 33.1137 54.4289 29.5272 54.4289 25.246Z" fill="#A4C2F7"/>
<path d="M38.3631 44.7537C35.1378 44.7537 32.179 43.2895 30.2308 40.7798C28.561 41.8692 26.5996 42.4588 24.593 42.4588C19.3839 42.4588 14.9799 38.5611 14.3483 33.3921C14.2826 32.8504 14.607 32.3369 15.1244 32.1649C15.6412 31.9928 16.2105 32.2082 16.4823 32.6816C17.9157 35.1735 20.5836 36.7212 23.4452 36.7212C25.333 36.7212 27.1696 36.0501 28.6161 34.8308C28.8729 34.6141 29.2078 34.5182 29.5433 34.576C29.8742 34.6312 30.1651 34.8282 30.3378 35.1158C31.8087 37.5584 34.38 39.0161 37.2153 39.0161C41.6449 39.0161 45.2485 35.4126 45.2485 30.9836L45.2334 30.7255C45.2157 30.1878 45.5742 29.7091 46.0962 29.5751C49.6512 28.6644 52.1333 25.4692 52.1333 21.8033C52.1333 21.4723 52.1083 21.148 52.0696 20.8275C52.0039 20.2858 52.3283 19.7723 52.8464 19.601C53.3638 19.4296 53.9318 19.6443 54.203 20.1171C55.1012 21.6772 55.576 23.4514 55.576 25.246C55.576 29.6579 52.7807 33.5399 48.6761 34.9798C48.3885 40.418 43.8722 44.7537 38.3631 44.7537ZM33.0366 40.4358C34.4824 41.728 36.3565 42.4588 38.3631 42.4588C42.2536 42.4588 45.5072 39.6787 46.2413 36.0009C44.475 39.1658 41.0914 41.3117 37.216 41.3117C35.7432 41.3117 34.3268 41.0064 33.0366 40.4358ZM19.2382 38.1133C20.6663 39.393 22.5502 40.1639 24.593 40.1639C26.4808 40.1639 28.3174 39.4928 29.7633 38.2735C29.7895 38.2518 29.8164 38.2308 29.8434 38.2118C29.5755 37.9366 29.322 37.6444 29.083 37.3378C26.1899 39.2256 22.3256 39.4974 19.2382 38.1133ZM47.529 31.5371C47.5027 32.0316 47.4417 32.5168 47.3478 32.9903C50.3282 32.1846 52.5358 29.7669 53.1248 26.8245C51.9212 28.9842 49.9533 30.6868 47.529 31.5371Z" fill="#A4C2F7"/>
<path d="M38.3632 44.7538C35.1385 44.7538 32.1798 43.2889 30.2315 40.7799C28.5611 41.8692 26.5997 42.4589 24.5931 42.4589C18.8981 42.4589 14.265 37.8257 14.265 32.1314C14.265 30.6816 14.5756 29.2462 15.1691 27.9225C12.4632 25.9966 10.8223 22.8638 10.8223 19.5084C10.8223 13.7885 15.5145 9.09693 21.2246 9.18097C21.8228 3.99033 26.1933 0 31.4785 0C34.5476 0 37.4564 1.37892 39.4112 3.72636C40.1978 3.53791 41.0002 3.4427 41.8059 3.4427C47.5009 3.4427 52.134 8.07587 52.134 13.7708C52.134 14.9094 51.9482 16.0237 51.5811 17.0953C54.0987 19.0475 55.5767 22.0299 55.5767 25.246C55.5767 29.6573 52.7815 33.5399 48.6769 34.9799C48.3886 40.4181 43.8723 44.7538 38.3632 44.7538ZM30.5034 38.0037C30.5658 38.0037 30.6288 38.0083 30.6912 38.0194C31.0221 38.0733 31.313 38.2716 31.4857 38.5585C32.9572 41.0012 35.5279 42.4595 38.3632 42.4595C42.7928 42.4595 46.3964 38.856 46.3964 34.4264L46.382 34.1683C46.3636 33.6299 46.7228 33.1512 47.2441 33.0179C50.7991 32.1078 53.2818 28.912 53.2818 25.246C53.2818 22.4981 51.8924 19.9687 49.5646 18.4795C49.0866 18.1742 48.9034 17.5628 49.1365 17.0441C49.6027 16.0033 49.8391 14.9015 49.8391 13.7708C49.8391 9.34185 46.2355 5.73827 41.8059 5.73827C40.9694 5.73827 40.1361 5.87091 39.3285 6.13159C38.8518 6.28853 38.3278 6.11321 38.0382 5.70282C36.5299 3.56877 34.0774 2.29492 31.4785 2.29492C27.0489 2.29492 23.4453 5.89849 23.4453 10.3281C23.4453 10.6571 23.3061 11.011 23.0585 11.229C22.8116 11.4463 22.48 11.5901 22.1583 11.5468C21.828 11.5048 21.4925 11.4752 21.1504 11.4752C16.7208 11.4752 13.1172 15.0788 13.1172 19.5084C13.1172 22.4068 14.6924 25.0911 17.2277 26.5146C17.4962 26.665 17.6926 26.9172 17.7733 27.214C17.8541 27.5114 17.8127 27.8279 17.6578 28.0938C16.9394 29.323 16.5599 30.7197 16.5599 32.1308C16.5599 36.5604 20.1635 40.1633 24.5924 40.1633C26.4802 40.1633 28.3168 39.4922 29.7634 38.2729C29.9722 38.0982 30.2348 38.0037 30.5034 38.0037Z" fill="#005ED0"/>
<path d="M24.5937 42.4589C18.8988 42.4589 14.2656 37.8257 14.2656 32.1314C14.2656 26.4365 18.8988 21.8033 24.5937 21.8033C25.2274 21.8033 25.7415 22.3168 25.7415 22.9511C25.7415 23.5848 25.2274 24.0983 24.5937 24.0983C20.1641 24.0983 16.5612 27.7018 16.5612 32.1314C16.5612 36.5604 20.1641 40.164 24.5937 40.164C26.4861 40.164 28.3227 39.4936 29.7666 38.2768C30.2499 37.8671 30.9748 37.9295 31.3839 38.4147C31.7923 38.8993 31.7306 39.6229 31.246 40.032C29.3891 41.5974 27.0259 42.4589 24.5937 42.4589Z" fill="#005ED0"/>
<path d="M44.99 22.3838C48.4911 21.0896 50.9876 17.7217 50.9876 13.7708C50.9876 8.70029 46.8771 4.59045 41.8073 4.59045C40.8191 4.59045 39.867 4.74608 38.9746 5.03565" fill="#E3E7F2"/>
<path d="M44.9891 23.5322C44.5223 23.5322 44.0843 23.2453 43.9129 22.7824C43.693 22.1875 43.997 21.5275 44.5912 21.3076C47.7306 20.148 49.8397 17.1183 49.8397 13.7708C49.8397 9.34118 46.2361 5.7376 41.8065 5.7376C40.9594 5.7376 40.1255 5.86893 39.3277 6.12698C38.7256 6.322 38.0781 5.99238 37.8825 5.38893C37.6868 4.78615 38.0177 4.14003 38.6205 3.94435C39.6462 3.61144 40.7191 3.44269 41.8065 3.44269C47.5007 3.44269 52.1339 8.07586 52.1339 13.7708C52.1339 18.075 49.4227 21.9688 45.3864 23.4607C45.2564 23.5092 45.1218 23.5322 44.9891 23.5322Z" fill="#005ED0"/>
</g>
</svg>
