<svg width="42" height="42" viewBox="0 0 42 42" fill="none" xmlns="http://www.w3.org/2000/svg">
<path d="M24.2812 13.9453C24.2812 13.4932 23.9131 13.125 23.4609 13.125C23.0088 13.125 22.6406 13.4932 22.6406 13.9453C22.6406 14.3981 23.0088 14.7656 23.4609 14.7656C23.9131 14.7656 24.2812 14.3981 24.2812 13.9453Z" fill="#5F5F5F"/>
<path d="M26.7422 14.7656H31.6641C32.1162 14.7656 32.4844 14.3981 32.4844 13.9453C32.4844 13.4932 32.1162 13.125 31.6641 13.125H26.7422C26.2901 13.125 25.9219 13.4932 25.9219 13.9453C25.9219 14.3981 26.2901 14.7656 26.7422 14.7656Z" fill="#5F5F5F"/>
<path d="M15.2656 16.4062H10.3437C9.89066 16.4062 9.52344 16.7735 9.52344 17.2266V22.1484C9.52344 22.6015 9.89066 22.9688 10.3437 22.9688H15.2656C15.7187 22.9688 16.0859 22.6015 16.0859 22.1484V17.2266C16.0859 16.7735 15.7187 16.4062 15.2656 16.4062ZM14.4453 21.3281H11.1641V18.0469H14.4453V21.3281Z" fill="#5F5F5F"/>
<path d="M23.4688 16.4062H18.5469C18.0938 16.4062 17.7266 16.7735 17.7266 17.2266V22.1484C17.7266 22.6015 18.0938 22.9688 18.5469 22.9688H23.4688C23.9215 22.9688 24.2891 22.6015 24.2891 22.1484V17.2266C24.2891 16.7735 23.9215 16.4062 23.4688 16.4062ZM22.6484 21.3281H19.3672V18.0469H22.6484V21.3281Z" fill="#5F5F5F"/>
<path d="M31.6719 16.4062H26.75C26.2969 16.4062 25.9297 16.7735 25.9297 17.2266V22.1484C25.9297 22.6015 26.2969 22.9688 26.75 22.9688H31.6719C32.1246 22.9688 32.4922 22.6015 32.4922 22.1484V17.2266C32.4922 16.7735 32.1246 16.4062 31.6719 16.4062ZM30.8516 21.3281H27.5703V18.0469H30.8516V21.3281Z" fill="#5F5F5F"/>
<path d="M12.8047 14.7656C14.1617 14.7656 15.2656 13.6617 15.2656 12.3047C15.2656 10.9476 14.1617 9.84375 12.8047 9.84375C11.4476 9.84375 10.3438 10.9476 10.3438 12.3047C10.3438 13.6617 11.4476 14.7656 12.8047 14.7656ZM12.8047 11.4844C13.2568 11.4844 13.625 11.8522 13.625 12.3047C13.625 12.7571 13.2568 13.125 12.8047 13.125C12.3522 13.125 11.9844 12.7571 11.9844 12.3047C11.9844 11.8522 12.3522 11.4844 12.8047 11.4844Z" fill="#5F5F5F"/>
<path d="M37.8975 0H4.10252C1.84026 0 0 1.84026 0 4.10252V31.3359C0 33.5976 1.83994 35.4375 4.10156 35.4375H15.2165C15.0261 36.3725 14.1975 37.0781 13.207 37.0781C11.1716 37.0781 9.51562 38.7341 9.51562 40.7695V41.1797C9.51562 41.6328 9.88284 42 10.3359 42H31.6641C32.1172 42 32.4844 41.6328 32.4844 41.1797V40.7695C32.4844 38.7341 30.8284 37.0781 28.793 37.0781C27.8025 37.0781 26.9739 36.3725 26.7835 35.4375H37.8984C40.1601 35.4375 42 33.5976 42 31.3359V4.10252C42 1.84026 40.1597 0 37.8975 0V0ZM32.4844 28.875V25.4297C32.4844 24.9766 32.1172 24.6094 31.6641 24.6094H26.7422C26.2891 24.6094 25.9219 24.9766 25.9219 25.4297V28.875H24.2812V25.4297C24.2812 24.9766 23.914 24.6094 23.4609 24.6094H18.5391C18.086 24.6094 17.7188 24.9766 17.7188 25.4297V28.875H16.0781V25.4297C16.0781 24.9766 15.7109 24.6094 15.2578 24.6094H10.3359C9.88284 24.6094 9.51562 24.9766 9.51562 25.4297V28.875H6.56987V8.20312H35.4449V28.875H32.4844ZM30.8438 28.875H27.5625V26.25H30.8438V28.875ZM22.6406 28.875H19.3594V26.25H22.6406V28.875ZM14.4375 28.875H11.1562V26.25H14.4375V28.875ZM1.64062 28.875V8.20312H4.92924V28.875H1.64062ZM37.0855 8.20312H40.3594V28.875H37.0855V8.20312ZM1.64062 4.10252C1.64062 2.74516 2.74516 1.64062 4.10252 1.64062H37.8975C39.2548 1.64062 40.3594 2.74516 40.3594 4.10252V6.5625H1.64062V4.10252ZM25.7261 37.0781H22.7637C22.3115 37.0781 21.9434 37.4463 21.9434 37.8984C21.9434 38.3506 22.3115 38.7188 22.7637 38.7188H28.793C29.7834 38.7188 30.6121 39.4243 30.8024 40.3594H11.1976C11.3879 39.4243 12.2166 38.7188 13.207 38.7188C15.1037 38.7188 16.6712 37.2806 16.8757 35.4375H25.1243C25.1913 36.0399 25.4044 36.5984 25.7261 37.0781ZM40.3594 31.3359C40.3594 32.693 39.2555 33.7969 37.8984 33.7969H4.10156C2.74452 33.7969 1.64062 32.693 1.64062 31.3359V30.5156H40.3594V31.3359Z" fill="#5F5F5F"/>
<path d="M37.8164 4.92188C38.2692 4.92188 38.6367 4.55434 38.6367 4.10156C38.6367 3.64879 38.2692 3.28125 37.8164 3.28125C37.3636 3.28125 36.9961 3.64879 36.9961 4.10156C36.9961 4.55434 37.3636 4.92188 37.8164 4.92188Z" fill="#5F5F5F"/>
<path d="M31.2539 4.92188C31.7067 4.92188 32.0742 4.55434 32.0742 4.10156C32.0742 3.64879 31.7067 3.28125 31.2539 3.28125C30.8011 3.28125 30.4336 3.64879 30.4336 4.10156C30.4336 4.55434 30.8011 4.92188 31.2539 4.92188Z" fill="#5F5F5F"/>
<path d="M34.5352 4.92188C34.9879 4.92188 35.3555 4.55434 35.3555 4.10156C35.3555 3.64879 34.9879 3.28125 34.5352 3.28125C34.0824 3.28125 33.7148 3.64879 33.7148 4.10156C33.7148 4.55434 34.0824 4.92188 34.5352 4.92188Z" fill="#5F5F5F"/>
</svg>
