<svg width="64" height="70" viewBox="0 0 64 70" fill="none" xmlns="http://www.w3.org/2000/svg">
<path d="M8.30247 17.2137C8.60106 17.2863 8.91578 17.2486 9.18881 17.1076C9.44638 16.9615 9.64148 16.7261 9.73718 16.4458C9.81989 16.1644 9.79638 15.8626 9.67114 15.5975L9.55589 15.4096C9.51009 15.346 9.45636 15.2888 9.39607 15.2389C9.34589 15.1843 9.28806 15.1373 9.22449 15.0994C9.15722 15.0595 9.08736 15.0241 9.01545 14.9936C8.56797 14.8049 8.04954 14.9392 7.75 15.3213C7.43322 15.6977 7.37102 16.2266 7.59209 16.6662C7.67016 16.7996 7.77392 16.9161 7.89738 17.0089C8.01742 17.1037 8.15509 17.1733 8.30247 17.2137Z" fill="#428DFF"/>
<path d="M1.98307 38.0191C1.14568 39.0416 0.267276 40.2344 0.445008 41.4489C0.699164 42.3689 1.30701 43.151 2.13579 43.6245C2.52146 43.8926 2.92847 44.1287 3.35257 44.3303C3.85609 44.5867 4.69923 45.0168 4.75733 45.3238C4.83417 45.7177 4.7896 46.1258 4.62964 46.4939C4.45642 46.859 4.2765 47.1746 4.12146 47.4486C3.69313 48.2063 2.97536 49.4743 4.05761 50.3817C4.30945 50.6044 4.74011 50.9429 5.13426 51.2441C4.84237 51.7568 4.71139 52.3455 4.75829 52.9336C4.82131 53.3901 5.06987 53.8004 5.44529 54.0678C5.70615 54.253 5.98532 54.4142 6.26217 54.5726C6.94808 54.9635 7.21577 55.1457 7.30806 55.5097C7.36931 55.9848 7.32624 56.4675 7.18159 56.9241C7.11433 57.2301 7.0483 57.5359 7.00728 57.8412C6.89011 58.9023 7.02396 59.9762 7.39815 60.976C7.91768 62.8335 9.59629 64.1286 11.5247 64.1597C11.8458 64.1592 12.1662 64.1257 12.4806 64.0601C15.8082 63.2575 19.0899 62.2761 22.3116 61.12C24.9396 62.6632 23.5681 68.2402 24 70C24.1288 70.5214 27.6306 69.9993 28.1678 69.9999H57.6644C58.0343 69.9997 58.3822 69.8243 58.6022 69.527C58.8222 69.2296 58.8881 68.8456 58.7799 68.492C58.4683 67.6698 58.0247 66.9039 57.4662 66.2249C57.15 65.8217 56.8687 65.3922 56.6254 64.9414C56.0997 63.865 55.6591 62.7492 55.3072 61.6044C54.6401 59.3513 54.1799 57.042 53.9321 54.7054C53.5196 51.2166 54.0462 47.6811 55.4576 44.4642C56.3212 42.6837 57.3836 41.0067 58.6249 39.4654C59.3301 38.5169 60.0581 37.5359 60.7143 36.5015C62.5559 33.6407 63.5461 30.3153 63.5694 26.9131C63.6392 23.5695 63.2283 20.2332 62.3492 17.0062C61.1693 12.9967 58.7222 9.47737 55.3744 6.97518C48.7926 1.81248 42.6393 -0.327691 35.4411 0.0402138C31.6453 0.3023 27.8737 0.841101 24.1562 1.65238C18.8926 2.71194 15.0703 4.56212 12.468 7.30849C11.3389 8.50709 10.35 9.83133 9.52164 11.2546C9.35717 11.525 9.31178 11.8515 9.39641 12.1565C9.4809 12.4615 9.68789 12.7181 9.96816 12.8652C10.5243 13.1523 11.2078 12.963 11.537 12.4306C12.275 11.162 13.1554 9.98199 14.1614 8.91341C16.4217 6.52784 19.8419 4.90105 24.6166 3.93993C28.2218 3.15216 31.8795 2.62744 35.5607 2.37001C42.1642 2.03792 47.8288 4.02032 53.9367 8.81224C56.9043 11.0014 59.0713 14.1041 60.1048 17.644C60.922 20.6526 61.303 23.7629 61.2362 26.8798C61.2165 29.8511 60.3515 32.7553 58.7422 35.2531C58.1327 36.2136 57.4309 37.1593 56.7519 38.0742C55.4046 39.757 54.2529 41.5874 53.3192 43.5303C51.7412 47.1288 51.153 51.0835 51.6158 54.9855C51.8798 57.4608 52.3691 59.9066 53.0776 62.293C53.4644 63.5504 53.9481 64.7758 54.5245 65.9581C54.8274 66.5366 55.1817 67.0868 55.5829 67.6021C55.5989 67.6232 55.6148 67.6449 55.6295 67.6665H26.9648C26.1878 64.8976 26.8661 62.3463 24.938 60.2126C25.2433 60.1061 25.5327 60.0046 25.8016 59.91C26.6754 59.6041 27.3339 59.3729 27.6655 59.2686C32.667 57.6986 35.1689 55.4257 35.1005 52.5124C35.0855 51.8681 34.5508 51.358 33.9066 51.3732C33.2623 51.3882 32.7522 51.9229 32.7673 52.5671C32.7958 53.7691 31.8126 55.5213 26.9648 57.0429C26.6207 57.1518 25.936 57.3905 25.0303 57.7083C24.194 58.0012 23.1641 58.3617 22.0373 58.7468L22.0348 58.7481L22.0315 58.7486C18.7472 59.9372 15.4011 60.9474 12.0078 61.7753C10.9151 61.9873 9.85099 61.2952 9.60162 60.2104C9.3491 59.5551 9.25272 58.8501 9.32026 58.151C9.35211 57.9096 9.4068 57.668 9.46039 57.4264C9.69965 56.6171 9.73683 55.7614 9.56867 54.9342C9.2344 53.8628 8.44923 52.9905 7.4188 52.5456C7.33567 52.4983 7.25132 52.4505 7.16929 52.4021C7.29384 52.147 7.44341 51.9047 7.61594 51.6791C7.81049 51.4313 7.89635 51.1153 7.8541 50.8031C7.81186 50.4908 7.64493 50.209 7.39159 50.0219C7.11132 49.815 6.44483 49.3154 5.96523 48.9326C6.02442 48.8238 6.09169 48.7047 6.15321 48.5971C6.33204 48.2804 6.53711 47.9153 6.73658 47.4966C7.10996 46.6805 7.21947 45.7682 7.04994 44.8869C6.7776 43.4566 5.41043 42.7599 4.4124 42.2506C4.07416 42.0905 3.74987 41.9026 3.4428 41.689C3.2004 41.5207 2.97072 41.3346 2.7558 41.1324C2.75921 40.957 2.94146 40.5303 3.83928 39.4348C5.92435 36.7471 7.71165 33.8411 9.17014 30.768C9.45096 30.2866 9.60791 29.743 9.62705 29.1861C9.50838 28.0107 8.88468 26.945 7.91809 26.2661C7.44642 25.8343 7.00099 25.4263 6.95082 25.0687C6.95506 24.7857 7.01876 24.5069 7.13771 24.25L7.13812 24.2474C7.39145 23.5747 7.71848 22.8833 8.04223 22.1434C8.20273 21.7759 8.36228 21.3958 8.50816 20.9985C8.63216 20.6987 8.62068 20.36 8.47658 20.0694C8.33248 19.7787 8.06984 19.5645 7.75622 19.4816C7.16697 19.3323 6.5568 19.6343 6.31809 20.1934C6.19573 20.5263 6.05491 20.864 5.90411 21.2092C5.60087 21.9045 5.25539 22.6298 4.9553 23.4228L4.95461 23.424C4.68514 24.0413 4.577 24.7169 4.64017 25.3877C4.87696 26.4304 5.48111 27.3531 6.34229 27.9869C6.91418 28.511 7.29015 28.879 7.29357 29.214C7.24831 29.3884 7.17968 29.5559 7.08958 29.7119C5.6922 32.6576 3.9801 35.4426 1.98307 38.0191Z" fill="#005ED0"/>
<path d="M25.2379 18.8684C24.6727 18.8683 24.1888 19.2735 24.0895 19.83C23.7462 21.7619 23.7462 23.7393 24.0895 25.6712C24.1888 26.2276 24.6727 26.6329 25.2379 26.6327H27.6567C27.9254 27.5456 28.291 28.4271 28.747 29.2622L27.0358 30.9735C26.6359 31.3732 26.5801 32.0021 26.9035 32.466C28.0252 34.0753 29.4231 35.4732 31.0324 36.5949C31.4963 36.9178 32.1248 36.8624 32.5249 36.4634L34.2362 34.7521C35.0717 35.2083 35.9537 35.5739 36.8669 35.8424V38.2617C36.8672 38.8268 37.2723 39.3105 37.8285 39.4101C39.7601 39.7528 41.7369 39.7528 43.6686 39.4101C44.2249 39.3105 44.6298 38.8268 44.6301 38.2617V35.8424C45.5434 35.5739 46.4254 35.2083 47.2608 34.7521L48.9721 36.4634C49.3721 36.8626 50.0008 36.9181 50.4647 36.5949C52.0739 35.4732 53.4719 34.0753 54.5935 32.466C54.917 32.0023 54.8613 31.3732 54.4613 30.9735L52.75 29.2622C53.2061 28.4271 53.5717 27.5456 53.8403 26.6327H56.2591C56.8243 26.6329 57.3083 26.2276 57.4075 25.6712C57.7508 23.7393 57.7508 21.7619 57.4075 19.83C57.3083 19.2735 56.8243 18.8683 56.2591 18.8684H53.8403C53.5717 17.9556 53.2061 17.074 52.75 16.239L54.4613 14.5277C54.8612 14.1279 54.917 13.499 54.5935 13.0351C53.4719 11.4258 52.0739 10.0279 50.4647 8.90629C50.0013 8.58173 49.3716 8.63723 48.9721 9.03781L47.2608 10.7491C46.4254 10.2929 45.5434 9.92729 44.6301 9.65878V7.23958C44.6298 6.67453 44.2248 6.19082 43.6686 6.09116C41.7368 5.75046 39.7603 5.75046 37.8285 6.09116C37.2722 6.19082 36.8672 6.67453 36.8669 7.23958V9.65892C35.9537 9.92743 35.0717 10.293 34.2362 10.7492L32.5249 9.03795C32.1254 8.63737 31.4959 8.58186 31.0324 8.90643C29.4231 10.0281 28.0252 11.426 26.9035 13.0353C26.5801 13.499 26.6357 14.1281 27.0358 14.5278L28.747 16.2391C28.291 17.0742 27.9254 17.9557 27.6567 18.8686L25.2379 18.8684ZM29.7006 20.2858C29.9804 19.0064 30.4858 17.7871 31.1932 16.6849C31.4905 16.2237 31.4256 15.6173 31.037 15.2294L29.3999 13.5923C30.0484 12.7852 30.7828 12.0511 31.5897 11.4025L33.2268 13.0391C33.614 13.4279 34.2204 13.4936 34.6818 13.1963C35.7843 12.4881 37.0042 11.9824 38.2843 11.7027C38.8192 11.585 39.2003 11.1111 39.2003 10.5634V8.25074C40.2295 8.14027 41.2677 8.14027 42.2969 8.25074V10.5636C42.2969 11.1113 42.6779 11.5853 43.2129 11.7028C44.493 11.9826 45.7129 12.4883 46.8154 13.1965C47.2771 13.4925 47.8825 13.427 48.2703 13.0392L49.9075 11.4026C50.7146 12.0512 51.4487 12.7855 52.0973 13.5924L50.4601 15.2296C50.0717 15.6173 50.0067 16.2237 50.304 16.6851C51.0114 17.7871 51.5168 19.0065 51.7965 20.2859C51.914 20.8209 52.3881 21.2021 52.9358 21.2019H55.2486C55.3595 22.2315 55.3595 23.27 55.2486 24.2997H52.9357C52.3878 24.2995 51.9139 24.6807 51.7964 25.2157C51.5167 26.4951 51.0112 27.7143 50.3039 28.8165C50.0065 29.2778 50.0715 29.8841 50.46 30.272L52.0972 31.9092C51.4486 32.7162 50.7143 33.4504 49.9074 34.099L48.2702 32.4623C47.8825 32.0745 47.277 32.009 46.8153 32.3051C45.7128 33.0133 44.4929 33.519 43.2128 33.7987C42.6778 33.9165 42.2968 34.3903 42.2968 34.938V37.2508C41.2676 37.3613 40.2293 37.3613 39.2001 37.2508V34.938C39.2001 34.3903 38.8191 33.9163 38.2841 33.7987C37.0041 33.519 35.7841 33.0133 34.6816 32.3051C34.2204 32.0077 33.6139 32.0734 33.2267 32.4623L31.5895 34.099C30.7825 33.4504 30.0483 32.7161 29.3997 31.9092L31.0369 30.272C31.4253 29.8843 31.4904 29.2779 31.193 28.8165C30.4857 27.7144 29.9802 26.4951 29.7005 25.2157C29.5831 24.6807 29.1089 24.2995 28.5612 24.2997H26.2485C26.1377 23.27 26.1377 22.2315 26.2485 21.2019H28.5614C29.1091 21.2019 29.5831 20.8208 29.7006 20.2858Z" fill="#005ED0"/>
<path d="M22.4652 30.0508L21.5213 30.9949C21.1501 30.7751 20.7499 30.6083 20.3324 30.4995V29.1672C20.3324 28.5228 19.81 28.0005 19.1658 28.0005C18.5214 28.0005 17.9992 28.5229 17.9992 29.1672V30.4995C17.5816 30.6083 17.1815 30.7751 16.8104 30.9949L15.8665 30.0508C15.5719 29.756 15.1423 29.641 14.7397 29.7489C14.3372 29.8568 14.0228 30.1712 13.9149 30.5737C13.807 30.9762 13.9221 31.4058 14.2168 31.7005L15.1607 32.6447C14.9405 33.0159 14.7738 33.4162 14.6651 33.8338H13.3326C12.6883 33.8338 12.166 34.3562 12.166 35.0005C12.166 35.6448 12.6884 36.1671 13.3326 36.1671H14.6651C14.7738 36.5847 14.9405 36.985 15.1607 37.3562L14.2168 38.3004C13.9221 38.5951 13.807 39.0246 13.9149 39.4272C14.0228 39.8297 14.3372 40.1442 14.7397 40.252C15.1422 40.3599 15.5718 40.2448 15.8665 39.9501L16.8104 39.006C17.1816 39.2258 17.5818 39.3926 17.9993 39.5014V40.8338C17.9993 41.4781 18.5217 42.0004 19.1659 42.0004C19.8103 42.0004 20.3325 41.4781 20.3325 40.8338V39.5014C20.7501 39.3926 21.1502 39.2258 21.5213 39.006L22.4652 39.9501C22.9207 40.4057 23.6594 40.4057 24.1149 39.9501C24.5705 39.4946 24.5705 38.7559 24.1149 38.3004L23.171 37.3562C23.3912 36.985 23.5579 36.5847 23.6666 36.1671H24.9991C25.6434 36.1671 26.1657 35.6447 26.1657 35.0005C26.1657 34.3561 25.6433 33.8338 24.9991 33.8338H23.6666C23.5579 33.4162 23.3912 33.0159 23.171 32.6447L24.1149 31.7005C24.5705 31.245 24.5705 30.5063 24.1149 30.0508C23.6593 29.5952 22.9207 29.5952 22.4652 30.0508ZM19.1656 37.3338C17.877 37.3338 16.8323 36.2891 16.8323 35.0005C16.8323 33.7118 17.877 32.6671 19.1656 32.6671C20.4543 32.6671 21.499 33.7118 21.499 35.0005C21.4975 36.2885 20.4537 37.3323 19.1656 37.3338Z" fill="#005ED0"/>
<path d="M12.1647 19.8341C11.5203 19.8341 10.998 20.3565 10.998 21.0007C10.998 21.6449 11.5204 22.1673 12.1647 22.1673H13.0574C13.1293 22.4014 13.2233 22.6282 13.3378 22.8446L12.7069 23.4758C12.4121 23.7706 12.2971 24.2 12.405 24.6026C12.5129 25.0051 12.8273 25.3196 13.2298 25.4274C13.6323 25.5353 14.0619 25.4202 14.3566 25.1256L14.9894 24.4926C15.2052 24.6066 15.4312 24.7002 15.6645 24.7723V25.6674C15.6645 26.3117 16.1869 26.834 16.8311 26.834C17.4754 26.834 17.9977 26.3116 17.9977 25.6674V24.7723C18.2309 24.7004 18.4569 24.6067 18.6726 24.4926L19.3055 25.1257C19.7611 25.5813 20.4997 25.5813 20.9553 25.1257C21.4108 24.6702 21.4108 23.9315 20.9553 23.4759L20.3242 22.8446C20.4389 22.6282 20.5328 22.4015 20.6047 22.1674H21.4975C22.1418 22.1674 22.6641 21.645 22.6641 21.0008C22.6641 20.3566 22.1417 19.8342 21.4975 19.8342H20.6047C20.5328 19.6002 20.4389 19.3735 20.3242 19.1571L20.9553 18.5257C21.25 18.2309 21.365 17.8015 21.2571 17.3989C21.1493 16.9964 20.8348 16.6819 20.4323 16.5741C20.0298 16.4662 19.6003 16.5813 19.3055 16.8759L18.6726 17.5091C18.4568 17.3951 18.2308 17.3015 17.9977 17.2296V16.3343C17.9977 15.6899 17.4753 15.1677 16.8311 15.1677C16.1867 15.1677 15.6645 15.6901 15.6645 16.3343V17.2298C15.4312 17.3017 15.2052 17.3952 14.9895 17.5092L14.3566 16.8759C13.9011 16.4204 13.1624 16.4204 12.7069 16.8759C12.2513 17.3315 12.2513 18.0702 12.7069 18.5257L13.338 19.1571C13.2233 19.3735 13.1293 19.6002 13.0574 19.8342H12.1647V19.8341ZM15.1976 21.0007C15.1973 20.2612 15.6939 19.6137 16.4082 19.4222C17.1224 19.2306 17.8764 19.5427 18.2462 20.1831C18.616 20.8235 18.5097 21.6325 17.9867 22.1554C17.5197 22.6228 16.817 22.7628 16.2064 22.51C15.5956 22.2574 15.1974 21.6616 15.1976 21.0007Z" fill="#005ED0"/>
<path d="M40.7473 30.3339C44.9354 30.3339 48.3306 26.9388 48.3306 22.7506C48.3306 18.5624 44.9355 15.1674 40.7473 15.1674C36.5591 15.1674 33.1641 18.5624 33.1641 22.7506C33.169 26.9368 36.5612 30.329 40.7473 30.3339ZM40.7473 17.5007C43.6468 17.5007 45.9973 19.8511 45.9973 22.7506C45.9973 25.6501 43.6468 28.0006 40.7473 28.0006C37.8478 28.0006 35.4974 25.6501 35.4974 22.7506C35.5006 19.8525 37.8492 17.5038 40.7473 17.5007Z" fill="#005ED0"/>
</svg>
