<svg width="92" height="78" viewBox="0 0 92 78" fill="none" xmlns="http://www.w3.org/2000/svg">
<path d="M46.0009 77.1818C43.6038 77.1818 41.3048 76.224 39.6097 74.5191C37.9147 72.8143 36.9624 70.502 36.9624 68.0909V59.1455L25.3932 47.5091H9.84706C7.44991 47.5091 5.15094 46.5513 3.4559 44.8464C1.76086 43.1415 0.808594 40.8292 0.808594 38.4182C0.808594 36.0071 1.76086 33.6948 3.4559 31.9899C5.15094 30.2851 7.44991 29.3273 9.84706 29.3273H20.0786V9.90909C20.0786 8.71525 20.3124 7.5331 20.7666 6.43014C21.2208 5.32719 21.8866 4.32501 22.7259 3.48084C23.5652 2.63667 24.5616 1.96704 25.6582 1.51018C26.7548 1.05332 27.9301 0.818176 29.1171 0.818176C30.304 0.818176 31.4793 1.05332 32.5759 1.51018C33.6725 1.96704 34.6689 2.63667 35.5082 3.48084C36.3475 4.32501 37.0133 5.32719 37.4675 6.43014C37.9217 7.5331 38.1555 8.71525 38.1555 9.90909V34.6364L46.0009 42.6364L53.8463 34.6364V9.90909C53.8463 7.49803 54.7985 5.18572 56.4936 3.48084C58.1886 1.77597 60.4876 0.818176 62.8847 0.818176C65.2819 0.818176 67.5809 1.77597 69.2759 3.48084C70.9709 5.18572 71.9232 7.49803 71.9232 9.90909V29.2909H82.1547C84.5519 29.2909 86.8509 30.2487 88.5459 31.9536C90.2409 33.6584 91.1932 35.9708 91.1932 38.3818C91.1932 40.7929 90.2409 43.1052 88.5459 44.8101C86.8509 46.5149 84.5519 47.4727 82.1547 47.4727H66.6086L55.0394 59.1091V68.0909C55.0394 70.502 54.0871 72.8143 52.3921 74.5191C50.697 76.224 48.398 77.1818 46.0009 77.1818Z" fill="#E3E7F2"/>
</svg>
