<svg width="70" height="70" viewBox="0 0 70 70" fill="none" xmlns="http://www.w3.org/2000/svg">
<g opacity="0.7" clip-path="url(#clip0)">
<path d="M54.3427 46.5308C53.4562 47.8561 51.6728 48.2293 50.3293 47.3708C50.3177 47.3592 50.3059 47.3592 50.2943 47.3475L50.1077 47.2191C51.3858 48.1298 51.7111 49.8902 50.8427 51.1975C50.4151 51.8439 49.7478 52.2933 48.9881 52.4465C48.2285 52.5998 47.439 52.4442 46.7943 52.0141L44.8693 50.6841C46.0939 51.6485 46.3866 53.3848 45.5459 54.6975C45.1184 55.3439 44.4511 55.7934 43.6913 55.9465C42.9317 56.0998 42.1421 55.9442 41.4975 55.5141L39.6075 54.1725C39.7177 54.2639 39.8229 54.3614 39.9225 54.4641C41.0204 55.5078 41.1382 57.2176 40.1938 58.402C39.2493 59.5864 37.5561 59.8522 36.2943 59.0141L31.4409 55.7707H31.4293L13.7077 44.3842L13.0777 43.8826L10.3477 41.701L19.4477 28.051H33.8327L41.556 34.666L41.9994 35.051L51.671 41.281L53.5377 42.4826C53.9389 42.756 54.2706 43.1196 54.506 43.5442V43.5558C54.9966 44.5034 54.934 45.6427 54.3427 46.5308Z" fill="#A4C2F7"/>
<path d="M52.0093 44.9326C51.1228 46.2578 49.3394 46.631 47.9959 45.7726C47.9843 45.761 47.9725 45.761 47.9609 45.7492L47.7743 45.6208C49.0525 46.5315 49.3777 48.2919 48.5093 49.5992C48.0818 50.2456 47.4144 50.695 46.6547 50.8483C45.8951 51.0015 45.1057 50.8459 44.4609 50.4158L42.5359 49.0858C43.7605 50.0502 44.0533 51.7866 43.2125 53.0992C42.785 53.7456 42.1177 54.1951 41.3579 54.3483C40.5983 54.5015 39.8088 54.3459 39.1641 53.9158L37.2741 52.5742C37.3842 52.6658 37.4893 52.7631 37.5891 52.8658C38.6869 53.9095 38.8044 55.6193 37.8601 56.8036C36.9158 57.9878 35.2228 58.2536 33.9609 57.4158L29.1075 54.1724H29.0959L13.0777 43.8826L10.3477 41.701L19.4477 28.051H33.366L39.666 33.4526L41.556 34.666L51.2044 40.8843C51.3754 40.9973 51.5321 41.1304 51.671 41.281C51.8674 41.4792 52.0361 41.7029 52.1727 41.946V41.9576C52.6632 42.905 52.6007 44.0443 52.0093 44.9326Z" fill="#E3E7F2"/>
<path d="M17.0229 51.519C16.523 50.9286 16.278 50.1639 16.342 49.393C16.406 48.622 16.7735 47.9082 17.3639 47.4082L20.9987 44.5991C22.228 43.5581 24.0684 43.7108 25.1094 44.9402C26.1504 46.1696 25.9977 48.0099 24.7683 49.0508L21.1335 51.8598C19.9042 52.9009 18.0639 52.7482 17.0229 51.519Z" fill="#E3E7F2"/>
<path d="M12.8866 48.074C12.4909 47.6068 12.2972 47.0015 12.3477 46.3915C12.3983 45.7815 12.6893 45.2164 13.1564 44.8209L16.033 42.5977C16.5002 42.202 17.1054 42.0083 17.7155 42.0589C18.3255 42.1095 18.8906 42.4004 19.2861 42.8676C20.1098 43.8404 19.9891 45.2969 19.0162 46.1206L16.1396 48.3438C15.1669 49.1676 13.7104 49.0468 12.8866 48.074Z" fill="#E3E7F2"/>
<path d="M25.5468 57.3295C24.7243 56.3419 24.8582 54.8745 25.8457 54.0519L28.7678 51.7901C29.7419 50.9516 31.2113 51.0615 32.05 52.0355C32.8725 53.0232 32.7386 54.4906 31.7511 55.3132L28.829 57.575C27.8549 58.4134 26.3854 58.3035 25.5468 57.3295Z" fill="#E3E7F2"/>
<path d="M21.0037 55.025C20.6081 54.5578 20.4143 53.9526 20.4649 53.3426C20.5155 52.7325 20.8065 52.1675 21.2736 51.7719L25.6168 48.3821C26.5897 47.5584 28.0461 47.6791 28.87 48.652C29.6939 49.6249 29.573 51.0814 28.6001 51.9051L24.257 55.2949C23.2841 56.1188 21.8275 55.9979 21.0037 55.025Z" fill="#E3E7F2"/>
<path d="M20.3924 26.6276L19.4474 28.051L10.3474 41.701L9.93902 42.3076C9.60078 42.8211 8.92224 42.9845 8.3874 42.681L5.05078 40.7676L16.9274 22.6026L20.1358 25.0526C20.6172 25.4313 20.7287 26.1156 20.3924 26.6276Z" fill="#E3E7F2"/>
<path d="M54.506 43.556V43.5443L58.3326 39.7177L50.271 27.9175L45.4994 29.2177L40.76 27.1996C36.5513 26.392 34.7525 27.3229 34.0707 27.9062C33.9267 28.0231 33.8035 28.1634 33.7062 28.3211C33.0189 28.8847 32.2758 29.3767 31.4886 29.7893C30.6575 30.2374 30.204 31.165 30.3608 32.0962C30.5178 33.0273 31.2502 33.7551 32.1823 33.9061C34.3214 34.1932 36.497 33.8094 38.4088 32.8077L41.9357 35.051L54.506 43.556Z" fill="#E3E7F2"/>
<path d="M1.16602 10.4993L16.9278 22.6023L5.05102 40.7673L1.16602 38.4993V10.4993Z" fill="#E3E7F2"/>
<path d="M64.9476 40.7676L61.611 42.6809C61.0762 42.9844 60.3976 42.8212 60.0594 42.3076L58.3328 39.7176L50.2709 27.6308L49.6059 26.6274C49.2695 26.1154 49.3811 25.4311 49.8625 25.0524L53.0709 22.6024L64.9476 40.7676Z" fill="#E3E7F2"/>
<path d="M65.3321 40.8326L53.0703 22.6023L68.8321 10.4993V38.4993L65.3321 40.8326Z" fill="#E3E7F2"/>
<path d="M68.8332 10.4993V38.4993L65.3332 40.8326L65.1582 40.5643L65.3332 39.666V13.9993L68.8332 10.4993Z" fill="#A4C2F7"/>
<path d="M8.38777 42.6818C8.92262 42.9852 9.60115 42.8219 9.93939 42.3084L10.3006 41.7716L8.55102 40.7683L4.66602 38.5002V13.1879L1.16602 10.5002V38.5002L5.05102 40.7684L8.38777 42.6818Z" fill="white"/>
<path d="M34.0713 27.9061C34.0197 27.9518 33.9704 28.0001 33.9238 28.0508H37.3334L37.3817 28.0921C37.4412 28.0263 37.5045 27.9642 37.5715 27.9061C38.1696 27.4376 38.8801 27.1341 39.6321 27.0259C36.2359 26.5808 34.6877 27.3789 34.0713 27.9061Z" fill="white"/>
<path d="M2.33338 10.525V25.6916V38.525H0V25.6916V10.525H2.33338Z" fill="white"/>
<path d="M1.16647 21.0251C1.47532 21.0204 1.77104 20.8996 1.99485 20.6867C2.44602 20.2267 2.44602 19.4901 1.99485 19.0301L1.81999 18.89C1.75491 18.8457 1.68422 18.8102 1.60971 18.7845C1.54354 18.751 1.47272 18.7275 1.39958 18.7151C1.32247 18.702 1.24467 18.6942 1.16647 18.6917C0.857622 18.6961 0.561763 18.8168 0.338091 19.0301C-0.10228 19.4945 -0.10228 20.2223 0.338091 20.6867C0.449517 20.792 0.580083 20.8752 0.722681 20.9317C0.863091 20.9915 1.01389 21.0233 1.16647 21.0251Z" fill="#005ED0"/>
<path d="M69.3506 9.47964C68.9525 9.28332 68.4774 9.32966 68.1246 9.59927L49.1583 24.1017C48.2239 24.8232 47.9743 26.1284 48.5769 27.1437L45.5842 27.9595L41.2171 26.1001C41.141 26.0675 41.0616 26.043 40.9802 26.0273C36.7906 25.2268 34.6184 25.9988 33.4961 26.8589H21.5729C21.9816 25.8801 21.6811 24.7488 20.8406 24.1017L1.87537 9.59927C1.62982 9.41115 1.31947 9.32843 1.01281 9.36918C0.706152 9.40992 0.42834 9.57097 0.240488 9.81679C0.0899609 10.0216 0.0123047 10.271 0.0196875 10.525H0V15.1916C0 15.836 0.522402 16.3582 1.16662 16.3582C1.81084 16.3582 2.33324 15.8358 2.33324 15.1916V12.8859L15.3586 22.8461L4.67496 39.1863L2.33324 37.8485V24.5251C2.33324 23.8808 1.81084 23.3585 1.16662 23.3585C0.522402 23.3585 0 23.8808 0 24.5251V38.5251H0.0181836C0.0109375 38.941 0.228867 39.3285 0.587891 39.5385L7.80896 43.664C8.15992 43.8651 8.5575 43.9708 8.96191 43.9705C9.55541 43.9689 10.1261 43.7419 10.5585 43.3356L11.912 44.4169C11.1247 45.4223 10.9527 46.779 11.4641 47.9492C11.9757 49.1193 13.0884 49.9143 14.3612 50.0191C14.4603 50.0282 14.5584 50.0317 14.6562 50.0317C14.8356 50.03 15.0147 50.0146 15.1918 49.9853C15.2646 50.8181 15.5933 51.6079 16.1328 52.2465L16.134 52.2477C16.8323 53.0762 17.8328 53.5911 18.9129 53.6775C19.028 53.6878 19.1429 53.6923 19.2581 53.6923C19.2757 53.6923 19.2927 53.6881 19.3102 53.6878C19.3427 54.4462 19.6252 55.1724 20.1137 55.7533C20.7781 56.5366 21.7537 56.9876 22.7808 56.9861C23.189 56.9854 23.5938 56.912 23.9762 56.7694C24.3656 58.1608 25.582 59.1615 27.0225 59.2751C27.1216 59.2842 27.2196 59.2876 27.3175 59.2876C28.1202 59.2924 28.8987 59.0123 29.5142 58.497L31.3437 57.0835L35.6517 59.9622C36.3185 60.4052 37.1014 60.6414 37.9019 60.6412C38.1765 60.6413 38.4505 60.6142 38.7198 60.5602C40.4749 60.2108 41.7946 58.7542 41.9702 56.9734C43.1379 57.3297 44.4043 57.1365 45.4126 56.4481C46.4209 55.7598 47.0621 54.6507 47.1557 53.4333C48.507 53.8799 49.9934 53.5865 51.0736 52.6598C52.1538 51.7332 52.6699 50.3086 52.4342 48.9052C53.6033 48.7715 54.655 48.1322 55.3119 47.156C55.9631 46.1745 56.1598 44.9598 55.8514 43.823L58.152 41.5232L59.0911 42.9314C59.7721 43.9514 61.1257 44.2711 62.1912 43.664L69.4122 39.5385C69.7759 39.331 70.0003 38.9443 70.0001 38.5257V10.5257C70 10.0818 69.7483 9.67638 69.3506 9.47964ZM6.70414 40.3455L17.2169 24.267L19.4232 25.9543L8.96643 41.6382L6.70414 40.3455ZM14.5537 47.6936C14.1031 47.6556 13.7173 47.3555 13.5693 46.9281C13.4214 46.5008 13.5394 46.0265 13.8701 45.718L16.788 43.4622C16.9932 43.2873 17.2543 43.1915 17.5239 43.1922C17.5558 43.1922 17.5876 43.1933 17.6196 43.1956C18.0704 43.2337 18.4565 43.5341 18.6043 43.9616C18.7522 44.3893 18.6341 44.8638 18.3032 45.1723L15.3854 47.4281C15.1568 47.6279 14.8557 47.724 14.5537 47.6936ZM19.1054 51.3521C18.409 51.2945 17.8135 50.8284 17.5904 50.1663C17.3672 49.5042 17.5592 48.7727 18.0789 48.3056L21.7532 45.4641C22.2934 45.0064 23.056 44.9193 23.6856 45.2432C24.315 45.5672 24.6874 46.2385 24.6289 46.9441C24.5957 47.376 24.401 47.7796 24.0837 48.0747L23.0839 48.8548L20.3804 50.9442C20.0272 51.2457 19.5679 51.3927 19.1054 51.3521ZM21.8955 54.2448C21.6985 54.0145 21.6025 53.7149 21.6289 53.4131C21.6489 53.1264 21.7792 52.8584 21.9923 52.6657L24.7196 50.5371L25.5242 49.9153C25.533 49.9078 25.5391 49.8982 25.548 49.8906L26.3718 49.2477C26.5766 49.0726 26.8372 48.9763 27.1067 48.9766C27.1391 48.9765 27.1713 48.978 27.2035 48.9811C27.6551 49.0192 28.0414 49.3203 28.1887 49.7489C28.3359 50.1775 28.2163 50.6525 27.8837 50.9601L25.1546 53.09L25.0638 53.1602L25.0612 53.1629L23.5041 54.3781C23.2732 54.5741 22.9739 54.6702 22.6721 54.6452C22.3705 54.6202 22.091 54.4761 21.8955 54.2448ZM28.0466 56.6841C27.8188 56.8852 27.5171 56.9815 27.215 56.9496C26.7646 56.9116 26.3789 56.6118 26.231 56.1848C26.0829 55.7578 26.2004 55.2837 26.5305 54.9751L26.5839 54.9336L29.4492 52.7183C29.9234 52.318 30.6302 52.3693 31.0417 52.8337C31.4532 53.2981 31.4189 54.0061 30.9646 54.4285L28.0466 56.6841ZM53.3693 45.8639C52.8354 46.6543 51.7694 46.8765 50.9641 46.3653L50.9549 46.3595L43.2929 41.064C42.9502 40.8257 42.5064 40.7888 42.1289 40.9672C41.7516 41.1455 41.4982 41.512 41.4647 41.9281C41.4313 42.3441 41.6227 42.7463 41.9666 42.9827L49.381 48.1083L49.3847 48.112C49.9726 48.5022 50.2671 49.2085 50.1303 49.9007C49.9934 50.5929 49.4525 51.1341 48.7603 51.2713C48.3119 51.3645 47.8449 51.2751 47.4626 51.0229L39.795 45.7318C39.2645 45.3669 38.5388 45.5005 38.1731 46.0303C37.8074 46.5601 37.9396 47.2861 38.4688 47.6527L44.069 51.5164L44.0709 51.5185C44.8796 52.0864 45.1011 53.1888 44.5744 54.0249C44.0486 54.822 42.9796 55.048 42.1761 54.5319L40.1126 53.0675L40.1116 53.0668H40.1114L38.0085 51.5742C37.6686 51.3328 37.2258 51.2911 36.8468 51.4649C36.4678 51.6386 36.2102 52.0012 36.1711 52.4162C36.132 52.8312 36.3173 53.2355 36.6572 53.477L38.8203 55.0116C38.9246 55.096 39.0236 55.1865 39.117 55.2827C39.777 55.9085 39.8493 56.9347 39.2837 57.6467C38.7181 58.3588 37.702 58.5207 36.9432 58.0193L33.1004 55.4512C33.7527 54.444 33.8354 53.1704 33.319 52.0874C32.8027 51.0043 31.7613 50.2667 30.5681 50.1392C30.5951 48.3231 29.2065 46.7983 27.3957 46.6558C27.246 46.6469 27.0957 46.6481 26.9462 46.6595C26.9088 45.2234 26.114 43.9144 24.8571 43.219C23.6003 42.5235 22.069 42.5452 20.8324 43.2762C20.4832 42.1789 19.6123 41.3262 18.5078 41.0004C17.4032 40.6746 16.2091 40.9177 15.32 41.6497L13.7267 42.881L11.9097 41.4292L20.0683 29.1923H30.3088C29.4231 29.9697 29.0098 31.1545 29.2198 32.314C29.4638 33.7214 30.5799 34.8154 31.9918 35.0313C34.1499 35.3367 36.3502 35.0197 38.3344 34.1176L41.3092 36.0101C41.3757 36.0483 41.4462 36.0799 41.519 36.1044L52.8927 43.4294C53.1173 43.5839 53.3061 43.7847 53.4464 44.0184C53.4521 44.032 53.4589 44.0446 53.4658 44.0583C53.7677 44.6322 53.7305 45.3254 53.3693 45.8639ZM54.5632 41.8116C54.4394 41.6917 54.3081 41.5797 54.1703 41.4763L42.6323 34.0446C42.5793 34.0189 42.5242 33.9976 42.4677 33.9806L39.0355 31.7977C38.6698 31.5652 38.2052 31.5541 37.829 31.7693C36.1513 32.6401 34.247 32.9753 32.3728 32.7298C31.9356 32.6781 31.586 32.342 31.5172 31.9071C31.4311 31.4517 31.6531 30.9936 32.0641 30.7792C32.9379 30.3241 33.7589 29.7743 34.5125 29.1398C34.5933 29.0717 34.6596 28.988 34.7073 28.8937C34.7442 28.8476 34.7854 28.8054 34.8303 28.7672C35.1721 28.4744 36.5816 27.5869 40.4198 28.2967L45.0432 30.2654C45.2841 30.3701 45.5537 30.3886 45.8065 30.3178L49.9298 29.1934L56.8319 39.5435L54.5632 41.8116ZM61.0336 41.6382L50.5757 25.9555L52.7833 24.2673L63.2959 40.3457L61.0336 41.6382ZM67.6666 37.8488L65.325 39.1866L54.6414 22.8465L67.6666 12.8863V37.8488Z" fill="#005ED0"/>
</g>
<defs>
<clipPath id="clip0">
<rect width="70" height="70" fill="white"/>
</clipPath>
</defs>
</svg>
