<svg width="6" height="19" viewBox="0 0 6 19" fill="none" xmlns="http://www.w3.org/2000/svg">
<path fill-rule="evenodd" clip-rule="evenodd" d="M0.6719 2.73625C0.6719 3.944 1.64996 4.92307 2.85646 4.92307C4.06296 4.92307 5.04102 3.944 5.04102 2.73625C5.04102 1.52851 4.06296 0.549438 2.85646 0.549438C1.64996 0.549438 0.6719 1.52851 0.6719 2.73625Z" fill="white"/>
<path fill-rule="evenodd" clip-rule="evenodd" d="M0.6719 9.29668C0.6719 10.5044 1.64996 11.4835 2.85646 11.4835C4.06296 11.4835 5.04102 10.5044 5.04102 9.29668C5.04102 8.08893 4.06296 7.10986 2.85646 7.10986C1.64996 7.10986 0.6719 8.08893 0.6719 9.29668Z" fill="white"/>
<path fill-rule="evenodd" clip-rule="evenodd" d="M0.6719 15.8571C0.6719 17.0649 1.64996 18.0439 2.85646 18.0439C4.06296 18.0439 5.04102 17.0649 5.04102 15.8571C5.04102 14.6494 4.06296 13.6703 2.85646 13.6703C1.64996 13.6703 0.6719 14.6494 0.6719 15.8571Z" fill="white"/>
</svg>
