<svg width="70" height="70" viewBox="0 0 70 70" fill="none" xmlns="http://www.w3.org/2000/svg">
<g opacity="0.7" clip-path="url(#clip0)">
<path d="M58.332 57.1424H68.8321L62.9987 62.9758L68.8321 68.809H47.832V61.809L58.332 57.1424Z" fill="#E3E7F2"/>
<path d="M11.666 57.1424H1.16602L6.99941 62.9758L1.16602 68.809H22.1661V61.809L11.666 57.1424Z" fill="#E3E7F2"/>
<path d="M12.8326 50.1423H57.1661C57.8105 50.1423 58.3327 50.6646 58.3327 51.309V60.6423C58.3327 61.2867 57.8105 61.809 57.1661 61.809H12.8326C12.1883 61.809 11.666 61.2866 11.666 60.6423V51.309C11.666 50.6646 12.1884 50.1423 12.8326 50.1423Z" fill="#A4C2F7"/>
<path d="M12.8326 50.1423H53.6661C54.3105 50.1423 54.8327 50.6646 54.8327 51.309V60.6423C54.8327 61.2867 54.3105 61.809 53.6661 61.809H12.8326C12.1883 61.809 11.666 61.2866 11.666 60.6423V51.309C11.666 50.6646 12.1884 50.1423 12.8326 50.1423Z" fill="#E3E7F2"/>
<path d="M10.4994 25.6423L13.3834 31.4034L19.8327 32.3261L15.166 36.8109L16.2675 43.1424L10.4994 40.1534L4.73137 43.1424L5.83265 36.8109L1.16602 32.3261L7.61532 31.4034L10.4994 25.6423Z" fill="#E3E7F2"/>
<path d="M59.4994 25.6423L62.3834 31.4034L68.8328 32.3261L64.166 36.8109L65.2674 43.1424L59.4994 40.1534L53.7314 43.1424L54.8326 36.8109L50.166 32.3261L56.6153 31.4034L59.4994 25.6423Z" fill="#E3E7F2"/>
<path d="M34.9994 1.14227L40.0464 10.7428L51.3328 12.2828L43.1661 19.7564L45.0934 30.309L34.9994 25.3261L24.9053 30.309L26.8326 19.7564L18.666 12.2828L29.9524 10.7428L34.9994 1.14227Z" fill="#E3E7F2"/>
<path d="M5.25001 57.1424L11.0833 62.9758L5.25001 68.809H1.75L7.58325 62.9758L1.75 57.1424H5.25001Z" fill="white"/>
<path d="M12.8386 50.1424H16.3386C16.0288 50.1413 15.7315 50.2639 15.5124 50.483C15.2934 50.702 15.1708 50.9994 15.1719 51.3092V61.8092H11.6719V51.3092C11.6739 50.6655 12.1951 50.1443 12.8386 50.1424Z" fill="white"/>
<path d="M31.999 13L23.999 14L30.3386 19.7507L28.7519 28.419L24.9136 30.309L26.8386 19.7507L18.6719 12.2839L29.9536 10.7439L35.0053 1.14227L36.7553 4.46728L31.999 13Z" fill="white"/>
<path d="M69.6577 57.9677C69.9899 57.6336 70.0887 57.1326 69.9085 56.6973C69.7283 56.262 69.3043 55.9775 68.8331 55.9758H59.4999V51.3092C59.4986 50.021 58.4546 48.9772 57.1665 48.9758H12.833C11.5448 48.9771 10.501 50.021 10.4996 51.3092V55.9758H1.16636C0.69509 55.9774 0.270988 56.2619 0.090792 56.6972C-0.0894037 57.1326 0.00958093 57.6336 0.341808 57.9677L5.34996 62.9759L0.341808 67.9839C0.00958093 68.318 -0.0892669 68.819 0.0909287 69.2543C0.271124 69.6896 0.695227 69.9741 1.16636 69.9757H22.1664C22.8108 69.9757 23.333 69.4533 23.333 68.8091V62.9757H46.6665V68.8091C46.6665 69.4535 47.1889 69.9757 47.8331 69.9757H68.8331C69.3044 69.9742 69.7285 69.6897 69.9087 69.2544C70.0889 68.819 69.9899 68.318 69.6577 67.9839L64.6495 62.9757L69.6577 57.9677ZM12.833 51.3091H57.1665L57.1676 57.1371L57.1665 57.1425L57.1676 57.1478L57.1682 60.6425H12.833V51.3091ZM20.9998 67.6425H3.98277L7.82458 63.8007C8.04346 63.5819 8.16637 63.2853 8.16637 62.9759C8.16637 62.6665 8.04346 62.3696 7.82458 62.151L3.98277 58.3092H10.4998V60.6426C10.501 61.9308 11.545 62.9746 12.8331 62.976H20.9998V67.6425ZM66.0168 67.6425H48.9998V62.9759H57.1665C58.4546 62.9746 59.4985 61.9306 59.4999 60.6425V58.3091H66.0168L62.175 62.1509C61.9561 62.3697 61.8332 62.6663 61.8332 62.9757C61.8332 63.2851 61.9561 63.5818 62.175 63.8006L66.0168 67.6425Z" fill="#005ED0"/>
<path d="M0.358259 33.1682L4.57782 37.2219L3.58196 42.9424C3.50594 43.3792 3.68409 43.8214 4.04161 44.0835C4.39913 44.3456 4.8745 44.3822 5.26811 44.1781L10.4999 41.4671L15.7318 44.1781C16.1254 44.3822 16.6006 44.3456 16.9583 44.0835C17.3159 43.8214 17.4941 43.3792 17.4179 42.9424L16.4222 37.2218L20.6416 33.1681C20.9632 32.859 21.0805 32.3937 20.9436 31.9691C20.8068 31.5445 20.44 31.2352 19.9985 31.172L14.1538 30.3346L11.543 25.1198C11.3238 24.7526 10.9276 24.5277 10.4999 24.5277C10.0723 24.5277 9.67607 24.7526 9.45691 25.1198L6.84612 30.3346L1.00139 31.172C0.55992 31.2352 0.192966 31.5445 0.0562467 31.9691C-0.0804724 32.3936 0.0365591 32.8591 0.358259 33.1682ZM7.78087 32.5575C8.15945 32.5035 8.48757 32.2672 8.65874 31.9252L10.4999 28.248L12.3411 31.9252C12.5123 32.2672 12.8403 32.5035 13.219 32.5575L17.3006 33.1425L14.3583 35.9692C14.0787 36.2381 13.9509 36.6283 14.017 37.0106L14.7154 41.0238L11.0366 39.1171C10.7001 38.9424 10.2998 38.9424 9.96332 39.1171L6.28435 41.0238L6.98271 37.0106C7.04888 36.6283 6.92105 36.2381 6.64146 35.9692L3.69913 33.1425L7.78087 32.5575Z" fill="#005ED0"/>
<path d="M69.9437 31.969C69.8068 31.5445 69.44 31.2353 68.9985 31.1721L63.1538 30.3347L60.543 25.12C60.3238 24.7527 59.9276 24.5278 59.4999 24.5278C59.0723 24.5278 58.6761 24.7527 58.4569 25.12L55.8461 30.3347L50.0014 31.1721C49.5599 31.2353 49.1929 31.5447 49.0562 31.9692C48.9195 32.3937 49.0367 32.8591 49.3582 33.1682L53.5778 37.2219L52.5821 42.9425C52.5061 43.3793 52.6842 43.8215 53.0417 44.0836C53.3994 44.3457 53.8746 44.3823 54.2682 44.1782L59.5001 41.4672L64.7319 44.1782C65.1255 44.3823 65.6008 44.3457 65.9584 44.0836C66.3161 43.8215 66.4942 43.3793 66.4181 42.9425L65.4223 37.2219L69.6419 33.1682C69.9635 32.8591 70.0807 32.3936 69.9437 31.969ZM63.3584 35.9692C63.0788 36.2381 62.951 36.6283 63.0172 37.0106L63.7155 41.0238L60.0367 39.1171C59.7002 38.9424 59.2999 38.9424 58.9635 39.1171L55.2846 41.0238L55.983 37.0106C56.0491 36.6283 55.9213 36.2381 55.6417 35.9692L52.6994 33.1425L56.781 32.5575C57.1596 32.5035 57.4877 32.2672 57.6589 31.9252L59.5001 28.248L61.3413 31.9252C61.5124 32.2672 61.8404 32.5035 62.2192 32.5575L66.3008 33.1425L63.3584 35.9692Z" fill="#005ED0"/>
<path d="M52.4472 11.9352C52.3123 11.5033 51.9397 11.1884 51.4913 11.1274L40.8004 9.66851L36.033 0.599393C35.8115 0.241873 35.4208 0.024353 35.0002 0.024353C34.5797 0.024353 34.189 0.241873 33.9675 0.599393L29.1999 9.66838L18.5091 11.1273C18.0606 11.1884 17.6881 11.5034 17.5531 11.9353C17.4182 12.3673 17.5452 12.8383 17.8791 13.1439L25.57 20.1815L23.758 30.0994C23.6787 30.5332 23.8508 30.9747 24.2027 31.2403C24.5548 31.506 25.0265 31.5503 25.4218 31.3549L35.0002 26.6278L44.5786 31.3549C44.974 31.5503 45.4458 31.506 45.7979 31.2403C46.15 30.9747 46.3221 30.5332 46.2427 30.0994L44.4306 20.1815L52.1216 13.1439C52.4553 12.8383 52.5823 12.3672 52.4472 11.9352ZM42.3791 18.8958C42.0831 19.1671 41.9471 19.5712 42.0191 19.9662L43.5299 28.2354L35.5165 24.2808C35.1912 24.1197 34.8095 24.1197 34.4843 24.2808L26.4709 28.2354L27.9816 19.9662C28.0535 19.5712 27.9177 19.1669 27.6217 18.8958L21.2909 13.103L30.1109 11.8994C30.4846 11.8486 30.8106 11.6202 30.9859 11.2864L35.0002 3.64932L39.0147 11.2862C39.19 11.62 39.5161 11.8484 39.8897 11.8991L48.7099 13.1029L42.3791 18.8958Z" fill="#005ED0"/>
</g>
<defs>
<clipPath id="clip0">
<rect width="70" height="70" fill="white"/>
</clipPath>
</defs>
</svg>
